<svg width="39" height="44" viewBox="0 0 39 44" fill="none" xmlns="http://www.w3.org/2000/svg">
<g filter="url(#filter0_d)">
<path d="M18.5816 29.394C18.5816 27.4651 19.4072 25.732 20.7197 24.5372C20.7374 24.5568 20.7567 24.5752 20.7776 24.5924C21.9687 25.5702 22.7416 27.4069 22.7416 29.4585C22.7416 31.5028 21.9743 33.3337 20.7904 34.3142C19.4369 33.1178 18.5816 31.3573 18.5816 29.394ZM29.2656 24.5924C29.2865 24.5752 29.3058 24.5568 29.3235 24.5372C30.6359 25.732 31.4615 27.4651 31.4615 29.394C31.4615 31.3573 30.6062 33.1178 29.2528 34.3142C28.0689 33.3337 27.3016 31.5028 27.3016 29.4585C27.3016 27.4069 28.0744 25.5702 29.2656 24.5924ZM23.8136 29.4585C23.8136 27.1844 22.9745 25.0915 21.5918 23.8692C22.5848 23.2347 23.7608 22.8676 25.0216 22.8676C26.2824 22.8676 27.4583 23.2347 28.4514 23.8692C27.0687 25.0915 26.2296 27.1844 26.2296 29.4585C26.2296 31.6863 27.0347 33.7398 28.3671 34.9717C27.3921 35.5737 26.2469 35.9204 25.0216 35.9204C23.7963 35.9204 22.6511 35.5737 21.676 34.9717C23.0085 33.7398 23.8136 31.6863 23.8136 29.4585ZM10.332 38.4326C10.8852 37.7646 10.8985 36.8261 10.4216 36.15L17.5237 28.9252C17.5144 29.0803 17.5096 29.2366 17.5096 29.394C17.5096 33.5956 20.8716 37.0039 25.0216 37.0039C29.1715 37.0039 32.5335 33.5956 32.5335 29.394C32.5335 25.1924 29.1715 21.7841 25.0216 21.7841C24.8556 21.7841 24.6909 21.7896 24.5276 21.8003L32.8673 13.3165C34.8132 11.337 34.6785 8.25486 32.5663 6.45904L32.0538 6.02338C29.9417 4.22769 26.9192 4.62817 25.3328 6.91405L7.03808 33.2746C6.29699 32.9178 5.38526 33.0961 4.83405 33.7617C4.1777 34.5543 4.28113 35.7279 5.06237 36.3921L7.73207 38.6619C8.51355 39.3263 9.67713 39.2233 10.332 38.4326ZM22.6528 22.1702C20.3991 22.9283 18.6199 24.7379 17.881 27.0244L16.4335 28.4969L13.4334 25.9464L26.2104 7.53629C27.436 5.77029 29.7337 5.46667 31.3638 6.85256L31.8762 7.28823C33.5083 8.67578 33.6112 11.0225 32.1069 12.5528L22.6528 22.1702ZM7.89593 33.9253L11.3052 29.0129L13.8225 31.153L9.63984 35.4079L7.89593 33.9253ZM12.8155 26.8368L15.6753 29.2682L14.5807 30.3818L11.9232 28.1224L12.8155 26.8368ZM8.42212 37.8327L5.75242 35.5629C5.42296 35.2828 5.37953 34.7911 5.65607 34.4572L5.57905 34.3934L5.65607 34.4572C5.93032 34.1261 6.41634 34.0832 6.74389 34.3617L9.41359 36.6314C9.74305 36.9115 9.78648 37.4032 9.50994 37.7371C9.23569 38.0683 8.74967 38.1112 8.42212 37.8327Z" fill="#EDC268" stroke="#EDC268" stroke-width="0.2"/>
</g>
<defs>
<filter id="filter0_d" x="0.301941" y="0.799927" width="38.041" height="42.4" filterUnits="userSpaceOnUse" color-interpolation-filters="sRGB">
<feFlood flood-opacity="0" result="BackgroundImageFix"/>
<feColorMatrix in="SourceAlpha" type="matrix" values="0 0 0 0 0 0 0 0 0 0 0 0 0 0 0 0 0 0 127 0"/>
<feOffset/>
<feGaussianBlur stdDeviation="2"/>
<feColorMatrix type="matrix" values="0 0 0 0 0.929412 0 0 0 0 0.760784 0 0 0 0 0.407843 0 0 0 1 0"/>
<feBlend mode="normal" in2="BackgroundImageFix" result="effect1_dropShadow"/>
<feBlend mode="normal" in="SourceGraphic" in2="effect1_dropShadow" result="shape"/>
</filter>
</defs>
</svg>
