<svg width="31" height="36" viewBox="0 0 31 36" fill="none" xmlns="http://www.w3.org/2000/svg">
<path d="M14.5816 25.394C14.5816 23.4651 15.4072 21.732 16.7197 20.5372C16.7374 20.5568 16.7567 20.5752 16.7776 20.5924C17.9687 21.5702 18.7416 23.4069 18.7416 25.4585C18.7416 27.5028 17.9743 29.3337 16.7904 30.3142C15.4369 29.1178 14.5816 27.3573 14.5816 25.394ZM25.2656 20.5924C25.2865 20.5752 25.3058 20.5568 25.3235 20.5372C26.6359 21.732 27.4615 23.4651 27.4615 25.394C27.4615 27.3573 26.6062 29.1178 25.2528 30.3142C24.0689 29.3337 23.3016 27.5028 23.3016 25.4585C23.3016 23.4069 24.0744 21.5702 25.2656 20.5924ZM19.8136 25.4585C19.8136 23.1844 18.9745 21.0915 17.5918 19.8692C18.5848 19.2347 19.7608 18.8676 21.0216 18.8676C22.2824 18.8676 23.4583 19.2347 24.4514 19.8692C23.0687 21.0915 22.2296 23.1844 22.2296 25.4585C22.2296 27.6863 23.0347 29.7398 24.3671 30.9717C23.3921 31.5737 22.2469 31.9204 21.0216 31.9204C19.7963 31.9204 18.6511 31.5737 17.676 30.9717C19.0085 29.7398 19.8136 27.6863 19.8136 25.4585ZM6.33196 34.4326C6.88518 33.7646 6.89854 32.8261 6.42159 32.15L13.5237 24.9252C13.5144 25.0803 13.5096 25.2366 13.5096 25.394C13.5096 29.5956 16.8716 33.0039 21.0216 33.0039C25.1715 33.0039 28.5335 29.5956 28.5335 25.394C28.5335 21.1924 25.1715 17.7841 21.0216 17.7841C20.8556 17.7841 20.6909 17.7896 20.5276 17.8003L28.8673 9.3165C30.8132 7.33698 30.6785 4.25486 28.5663 2.45904L28.0538 2.02338C25.9417 0.227686 22.9192 0.628173 21.3328 2.91405L3.03808 29.2746C2.29699 28.9178 1.38526 29.0961 0.834048 29.7617C0.1777 30.5543 0.28113 31.7279 1.06237 32.3921L3.73207 34.6619C4.51355 35.3263 5.67713 35.2233 6.33196 34.4326ZM18.6528 18.1702C16.3991 18.9283 14.6199 20.7379 13.881 23.0244L12.4335 24.4969L9.43344 21.9464L22.2104 3.53629C23.436 1.77029 25.7337 1.46667 27.3638 2.85256L27.8762 3.28823C29.5083 4.67578 29.6112 7.02253 28.1069 8.5528L18.6528 18.1702ZM3.89593 29.9253L7.30522 25.0129L9.82249 27.153L5.63984 31.4079L3.89593 29.9253ZM8.81545 22.8368L11.6753 25.2682L10.5807 26.3818L7.92321 24.1224L8.81545 22.8368ZM4.42212 33.8327L1.75242 31.5629C1.42296 31.2828 1.37953 30.7911 1.65607 30.4572L1.57905 30.3934L1.65607 30.4572C1.93032 30.1261 2.41634 30.0832 2.74389 30.3617L5.41359 32.6314C5.74305 32.9115 5.78648 33.4032 5.50994 33.7371C5.23569 34.0683 4.74967 34.1112 4.42212 33.8327Z" fill="#EDC268" stroke="#EDC268" stroke-width="0.2"/>
</svg>
