<svg width="36" height="36" viewBox="0 0 36 36" fill="none" xmlns="http://www.w3.org/2000/svg">
<mask id="path-1-outside-1" maskUnits="userSpaceOnUse" x="0" y="0" width="36" height="36" fill="black">
<rect fill="white" width="36" height="36"/>
<path fill-rule="evenodd" clip-rule="evenodd" d="M1.00339 16.275C1.00339 12.9582 1.00339 9.64146 1.00339 6.32424C1.00339 6.28101 1.00727 6.23681 1.00291 6.19407C0.98256 5.96192 1.08382 5.79533 1.27664 5.6773C1.45299 5.569 1.62691 5.45535 1.8052 5.35141C3.70434 4.2455 5.70183 3.36107 7.78992 2.68063C9.12659 2.24497 10.486 1.90207 11.8644 1.62572C13.6942 1.25951 15.5415 1.06524 17.4053 1.01084C18.9857 0.966159 20.5578 1.06135 22.1226 1.26388C23.7568 1.47564 25.3638 1.82048 26.948 2.28139C28.2488 2.65926 29.522 3.1158 30.7642 3.652C31.848 4.1202 32.8983 4.66076 33.9312 5.23193C34.158 5.35724 34.3823 5.48546 34.6085 5.60979C34.8692 5.75307 35.0005 5.94152 35 6.26984C34.9889 12.7406 34.9893 19.2104 34.9889 25.6802C34.9889 25.9313 34.9918 26.182 34.9879 26.4321C34.9826 26.7716 34.8363 26.9226 34.4961 26.9265C33.8925 26.9314 33.2898 26.9275 32.6871 26.9275C30.3515 26.9275 28.0158 26.9265 25.6811 26.9255C25.3803 26.9255 25.3604 26.9396 25.327 27.2393C25.2364 28.0543 25.1521 28.8702 25.0595 29.6852C24.9442 30.7149 24.8212 31.7435 24.7064 32.7732C24.6468 33.305 24.5964 33.8383 24.5416 34.3711C24.5353 34.4308 24.5315 34.4915 24.5218 34.5508C24.4578 34.935 24.141 35.0914 23.8188 34.8772C23.4671 34.6431 23.1333 34.3827 22.7936 34.1316C22.2612 33.7368 21.7312 33.3361 21.1978 32.9412C21.0369 32.8222 21.018 32.8213 20.8596 32.9422C20.2419 33.4109 19.6252 33.883 19.0084 34.3536C18.7962 34.5153 18.586 34.68 18.3694 34.8364C18.0642 35.0549 17.9285 35.0569 17.6248 34.8281C16.8128 34.2166 16.0037 33.5998 15.1946 32.9835C14.9757 32.8169 14.9795 32.8193 14.7572 32.9864C13.95 33.5921 13.1414 34.1943 12.3324 34.797C12.2781 34.8378 12.219 34.8747 12.158 34.9053C11.8406 35.0666 11.5495 34.9316 11.485 34.5775C11.4409 34.3405 11.424 34.0981 11.3978 33.8577C11.2796 32.7936 11.1619 31.7294 11.0451 30.6653C10.9206 29.5322 10.7985 28.3996 10.6759 27.266C10.6701 27.215 10.6672 27.1626 10.658 27.1125C10.6362 26.996 10.5698 26.928 10.4463 26.9275C10.3949 26.9275 10.3426 26.9265 10.2918 26.9265C7.50796 26.9265 4.72513 26.9265 1.94182 26.9265C1.82119 26.9265 1.70007 26.9304 1.57992 26.9338C1.15649 26.9421 0.999517 26.7361 1 26.3568C1.00727 22.9963 1.00339 19.6364 1.00339 16.275ZM17.9717 16.1938C21.2801 16.1938 24.5891 16.1938 27.8986 16.1938C28.0885 16.1938 28.2774 16.1938 28.4673 16.1992C28.8719 16.2108 29.2071 16.3939 29.461 16.6858C30.2807 17.6256 29.8413 18.8913 28.8501 19.2707C28.6103 19.3625 28.3637 19.3799 28.1132 19.3799C27.5711 19.3799 27.028 19.376 26.4858 19.3736C26.2378 19.3727 26.1879 19.4154 26.1481 19.6636C26.1414 19.7058 26.137 19.7486 26.1326 19.7923C26.0488 20.5733 25.9665 21.3547 25.8827 22.1367C25.7533 23.3388 25.6215 24.5403 25.4941 25.7429C25.4636 26.027 25.4994 26.0639 25.778 26.0639C28.4494 26.063 31.1208 26.0615 33.7917 26.0605C33.8431 26.06 33.8954 26.0581 33.9463 26.0571C34.0722 26.0532 34.1347 25.9833 34.141 25.8614C34.1444 25.8007 34.143 25.7405 34.143 25.6798C34.1425 19.3824 34.1396 13.0845 34.1478 6.78709C34.1483 6.468 34.0538 6.2747 33.768 6.13336C33.2191 5.86186 32.6871 5.55831 32.1431 5.27856C30.9619 4.66999 29.7444 4.13817 28.4959 3.68988C27.2794 3.25325 26.0387 2.89579 24.7732 2.61749C23.374 2.30859 21.9637 2.08906 20.5365 1.97347C17.1994 1.70391 13.9088 1.99144 10.6571 2.75979C9.40662 3.0546 8.1775 3.42907 6.97504 3.88075C5.94989 4.26542 4.94121 4.68893 3.96499 5.18482C3.35843 5.49274 2.76737 5.83224 2.16468 6.14988C1.93262 6.27178 1.82119 6.43352 1.84783 6.70841C1.87351 6.96437 1.85607 7.22567 1.85607 7.48502C1.85607 13.558 1.85607 19.6301 1.85607 25.7045C1.85607 25.7652 1.85558 25.8255 1.86043 25.8852C1.86867 25.9979 1.9331 26.0562 2.04501 26.061C2.09588 26.063 2.14772 26.063 2.19956 26.063C4.84528 26.0639 7.49003 26.0654 10.1362 26.0664C10.2055 26.0664 10.2733 26.0683 10.3421 26.0649C10.4439 26.0605 10.503 26.0037 10.5093 25.9032C10.5132 25.8342 10.5093 25.7647 10.5015 25.6968C10.4022 24.7778 10.3 23.8594 10.2002 22.9415C10.0829 21.8594 9.96812 20.7773 9.84797 19.6951C9.816 19.4062 9.77724 19.377 9.48946 19.377C8.93765 19.377 8.38728 19.3746 7.83595 19.3824C7.32483 19.3897 6.89607 19.2226 6.53707 18.8515C5.9339 18.2284 5.9838 17.1468 6.64317 16.5795C6.96922 16.2983 7.33597 16.19 7.76037 16.1909C11.1648 16.1958 14.5682 16.1938 17.9717 16.1938ZM17.9983 18.4989C21.3058 18.4989 24.6138 18.4999 27.9208 18.4989C28.0759 18.4989 28.2324 18.5062 28.385 18.4877C28.68 18.4537 28.8719 18.2697 28.9717 18.0045C29.1412 17.5572 28.7934 17.0622 28.2953 17.0375C28.0289 17.0244 27.7615 17.0346 27.495 17.0346C21.1803 17.0346 14.8667 17.0346 8.55249 17.0346C8.26858 17.0346 7.98371 17.0321 7.69933 17.0365C7.29237 17.0438 6.80256 17.4926 7.0448 18.0521C7.16786 18.3377 7.38975 18.478 7.68721 18.497C7.90135 18.511 8.11791 18.4994 8.3335 18.4994C11.5548 18.4989 14.7765 18.4989 17.9983 18.4989ZM20.9405 21.8467C20.8785 21.7792 20.8339 21.7166 20.7758 21.6724C19.9173 21.0225 19.0574 20.3751 18.1974 19.7262C18.0182 19.5912 17.9944 19.5941 17.8176 19.7282C17.4465 20.0094 17.0744 20.2867 16.7033 20.5679C16.182 20.9638 15.6583 21.3567 15.1394 21.7569C14.95 21.9031 14.9568 21.9638 15.1491 22.1071C15.9902 22.7375 16.8307 23.3689 17.6713 23.9988C17.8912 24.1644 17.9174 24.16 18.1412 23.9915C18.7047 23.5665 19.272 23.145 19.8369 22.721C20.161 22.4781 20.4837 22.2338 20.8054 21.9871C20.8494 21.9531 20.8848 21.906 20.9405 21.8467ZM21.7336 22.4155C21.6687 22.4504 21.6135 22.4733 21.566 22.5082C20.6712 23.1814 19.7768 23.8555 18.882 24.5306C18.6645 24.6943 18.6669 24.7506 18.882 24.9104C19.6814 25.5078 20.4827 26.1072 21.2801 26.7075C21.4909 26.8653 21.4894 26.8697 21.6992 26.7123C22.6028 26.0362 23.5063 25.3607 24.4094 24.6836C24.561 24.5695 24.5615 24.4961 24.4157 24.3883C23.5795 23.7657 22.7433 23.143 21.9071 22.5218C21.8533 22.482 21.7932 22.4519 21.7336 22.4155ZM17.1379 24.704C17.0642 24.6414 17.0046 24.5841 16.9373 24.534C16.0977 23.9055 15.2538 23.2795 14.4156 22.6476C14.1908 22.4786 14.1685 22.4762 13.952 22.6394C13.1831 23.2202 12.4118 23.7992 11.6396 24.3752C11.4453 24.5204 11.4419 24.5632 11.6391 24.7094C12.5 25.3534 13.3619 25.9979 14.2218 26.6434C14.3967 26.7735 14.4432 26.7725 14.6283 26.6332C14.9442 26.3952 15.2605 26.1582 15.5774 25.9207C16.0575 25.5583 16.5391 25.197 17.0201 24.8337C17.0579 24.8046 17.086 24.7618 17.1379 24.704ZM17.9072 25.2791C17.8423 25.3208 17.7754 25.3577 17.7154 25.4039C17.3995 25.6433 17.0875 25.8876 16.7721 26.1256C16.3177 26.4675 15.8584 26.8036 15.4073 27.1485C15.2131 27.2971 15.2155 27.3646 15.3981 27.503C16.2212 28.1276 17.0478 28.7483 17.8699 29.3744C17.9775 29.4564 18.0555 29.455 18.164 29.3705C18.8534 28.8401 19.5486 28.318 20.2419 27.793C20.365 27.6987 20.4904 27.6074 20.6111 27.5098C20.6978 27.4404 20.6905 27.3631 20.6111 27.2917C20.5796 27.2631 20.5403 27.2412 20.5064 27.216C19.6877 26.6001 18.8684 25.9843 18.0492 25.3689C18.0085 25.3388 17.9639 25.315 17.9072 25.2791ZM17.2125 30.0111C17.1437 29.9455 17.0952 29.8887 17.0366 29.8445C16.2256 29.2306 15.4141 28.6186 14.6012 28.0076C14.4466 27.8911 14.4108 27.8911 14.2601 28.0038C13.64 28.47 13.0208 28.9368 12.4031 29.4054C12.2301 29.5366 12.2263 29.6172 12.3929 29.7488C12.609 29.9198 12.8353 30.0781 13.0547 30.2447C13.6371 30.6901 14.2184 31.134 14.7979 31.5833C14.9713 31.7183 14.9897 31.7265 15.1743 31.5881C15.3947 31.4215 15.6118 31.253 15.8327 31.0879C16.2397 30.7833 16.65 30.4812 17.0555 30.1753C17.1088 30.1369 17.148 30.0801 17.2125 30.0111ZM21.0253 31.7057C21.0815 31.6692 21.1338 31.6406 21.1813 31.6041C21.9477 31.0184 22.7137 30.4302 23.4801 29.8445C23.6875 29.6857 23.6851 29.6114 23.4768 29.4545C22.8775 29.0052 22.2786 28.5536 21.6803 28.1014C21.4919 27.9591 21.4768 27.9591 21.2797 28.1087C20.8882 28.4054 20.4967 28.7022 20.1043 28.998C19.7187 29.2879 19.3287 29.5735 18.9459 29.8678C18.7938 29.9839 18.7982 30.0553 18.9474 30.1689C19.5869 30.6522 20.2269 31.1345 20.8679 31.6158C20.9148 31.6498 20.9696 31.6746 21.0253 31.7057ZM20.2627 32.2836C20.1964 32.2122 20.1668 32.17 20.1276 32.1394C19.4735 31.6459 18.8171 31.1578 18.1669 30.6605C18.0453 30.5672 17.9508 30.5866 17.8433 30.6687C17.1975 31.1578 16.5502 31.6445 15.9049 32.134C15.7474 32.2535 15.7479 32.3103 15.9025 32.4279C16.5483 32.9189 17.1936 33.4075 17.8394 33.8966C17.992 34.0122 18.0235 34.0083 18.1751 33.8917C18.7895 33.4172 19.4052 32.9461 20.0205 32.4721C20.0932 32.4172 20.1654 32.3599 20.2627 32.2836ZM11.6619 19.4304C11.7428 19.5145 11.7873 19.5747 11.845 19.6179C12.5039 20.1153 13.1666 20.6097 13.8265 21.107C14.1637 21.362 14.1676 21.3717 14.514 21.1182C15.2077 20.6077 15.8962 20.0895 16.5836 19.5728C16.6238 19.5422 16.6456 19.4853 16.6791 19.4368C16.6355 19.4105 16.6146 19.3862 16.5933 19.3862C15.0013 19.3819 13.4094 19.378 11.8174 19.3775C11.7864 19.377 11.7558 19.3974 11.6619 19.4304ZM25.2373 19.7913C25.139 19.8375 25.0968 19.8501 25.0653 19.8734C24.6187 20.209 24.1734 20.5461 23.7267 20.8836C23.3707 21.1532 23.0131 21.4227 22.6585 21.6952C22.5344 21.7909 22.5218 21.8598 22.6061 21.9478C22.6299 21.9715 22.6604 21.9895 22.688 22.0104C23.3382 22.5034 23.9893 22.9978 24.6405 23.4903C24.7626 23.5835 24.8454 23.5525 24.8779 23.4048C24.8866 23.363 24.8846 23.3184 24.889 23.2751C24.9457 22.7355 25.0009 22.1955 25.0595 21.6559C25.1172 21.126 25.1787 20.5946 25.2364 20.0648C25.2451 19.9924 25.2373 19.9176 25.2373 19.7913ZM19.3606 19.4062C19.3548 19.4266 19.3481 19.447 19.3418 19.4678C19.3999 19.5227 19.4537 19.5839 19.5176 19.632C20.191 20.1391 20.8659 20.6442 21.5403 21.1507C21.7079 21.277 21.7394 21.2824 21.8998 21.1619C22.596 20.6417 23.2897 20.1191 23.9825 19.5951C24.0329 19.5577 24.0693 19.5018 24.1526 19.4091C24.0228 19.393 23.9511 19.378 23.8794 19.378C22.4526 19.3756 21.0243 19.3741 19.5976 19.3746C19.5181 19.3751 19.4401 19.3955 19.3606 19.4062ZM13.4229 21.9108C13.3226 21.8283 13.2577 21.7729 13.1904 21.7209C12.9917 21.5694 12.7912 21.4213 12.593 21.2707C12.0722 20.8754 11.5519 20.4795 11.0301 20.0851C10.9637 20.0351 10.8993 19.9632 10.783 20.0351C10.783 20.1167 10.7748 20.2095 10.785 20.3008C10.8673 21.0546 10.9535 21.8088 11.0374 22.5621C11.0679 22.8366 11.0877 23.1119 11.1241 23.3854C11.1473 23.567 11.2263 23.602 11.36 23.5015C11.9937 23.0269 12.6264 22.5515 13.2577 22.0745C13.3096 22.0357 13.3512 21.9832 13.4229 21.9108ZM24.6128 25.7395C24.5915 25.7293 24.5697 25.7186 24.5489 25.7084C24.4908 25.7405 24.4283 25.7662 24.375 25.8055C23.8832 26.1684 23.3925 26.5341 22.9017 26.8993C22.7355 27.0227 22.5688 27.1456 22.407 27.2738C22.2975 27.3607 22.2912 27.4253 22.3692 27.5103C22.3988 27.5414 22.4366 27.5642 22.471 27.5904C23.0087 28.0076 23.5465 28.4239 24.0862 28.8382C24.1201 28.8649 24.1773 28.8605 24.2597 28.8785C24.3788 27.8177 24.4956 26.7789 24.6128 25.7395ZM14.2155 32.2836C14.1569 32.2142 14.1336 32.1758 14.1017 32.151C13.4593 31.6576 12.8178 31.1627 12.1739 30.6721C12.1182 30.6299 12.048 30.6075 11.9613 30.5638C11.9496 30.6537 11.9327 30.7032 11.9375 30.7513C12.0339 31.6527 12.1313 32.5532 12.2326 33.4541C12.2568 33.6717 12.3425 33.7072 12.5165 33.5765C12.9515 33.2511 13.3861 32.9267 13.8187 32.5993C13.9462 32.5022 14.0682 32.3997 14.2155 32.2836ZM24.0494 30.556C23.937 30.6143 23.8735 30.6362 23.8222 30.6745C23.1928 31.1539 22.564 31.6347 21.9371 32.1165C21.7879 32.2312 21.7922 32.3035 21.9434 32.4148C22.3242 32.695 22.705 32.9752 23.0853 33.256C23.2302 33.3633 23.3697 33.4784 23.516 33.5833C23.641 33.6722 23.7248 33.6358 23.7577 33.4867C23.765 33.4536 23.764 33.4182 23.767 33.3832C23.8614 32.5357 23.9559 31.6891 24.0479 30.8406C24.0557 30.7663 24.0494 30.6906 24.0494 30.556ZM11.3959 25.6632C11.3959 25.8055 11.3881 25.8803 11.3973 25.9527C11.4705 26.586 11.549 27.2174 11.6216 27.8503C11.6502 28.0892 11.6638 28.3301 11.6958 28.5681C11.7045 28.6284 11.7447 28.6997 11.7922 28.7299C11.8203 28.7478 11.9012 28.7056 11.9443 28.6716C12.4496 28.2864 12.953 27.8964 13.4573 27.5093C13.6579 27.3549 13.654 27.3024 13.4491 27.1494C12.8406 26.6987 12.2374 26.2432 11.6313 25.7915C11.5805 25.7536 11.5189 25.7293 11.3959 25.6632Z"/>
</mask>
<path fill-rule="evenodd" clip-rule="evenodd" d="M1.00339 16.275C1.00339 12.9582 1.00339 9.64146 1.00339 6.32424C1.00339 6.28101 1.00727 6.23681 1.00291 6.19407C0.98256 5.96192 1.08382 5.79533 1.27664 5.6773C1.45299 5.569 1.62691 5.45535 1.8052 5.35141C3.70434 4.2455 5.70183 3.36107 7.78992 2.68063C9.12659 2.24497 10.486 1.90207 11.8644 1.62572C13.6942 1.25951 15.5415 1.06524 17.4053 1.01084C18.9857 0.966159 20.5578 1.06135 22.1226 1.26388C23.7568 1.47564 25.3638 1.82048 26.948 2.28139C28.2488 2.65926 29.522 3.1158 30.7642 3.652C31.848 4.1202 32.8983 4.66076 33.9312 5.23193C34.158 5.35724 34.3823 5.48546 34.6085 5.60979C34.8692 5.75307 35.0005 5.94152 35 6.26984C34.9889 12.7406 34.9893 19.2104 34.9889 25.6802C34.9889 25.9313 34.9918 26.182 34.9879 26.4321C34.9826 26.7716 34.8363 26.9226 34.4961 26.9265C33.8925 26.9314 33.2898 26.9275 32.6871 26.9275C30.3515 26.9275 28.0158 26.9265 25.6811 26.9255C25.3803 26.9255 25.3604 26.9396 25.327 27.2393C25.2364 28.0543 25.1521 28.8702 25.0595 29.6852C24.9442 30.7149 24.8212 31.7435 24.7064 32.7732C24.6468 33.305 24.5964 33.8383 24.5416 34.3711C24.5353 34.4308 24.5315 34.4915 24.5218 34.5508C24.4578 34.935 24.141 35.0914 23.8188 34.8772C23.4671 34.6431 23.1333 34.3827 22.7936 34.1316C22.2612 33.7368 21.7312 33.3361 21.1978 32.9412C21.0369 32.8222 21.018 32.8213 20.8596 32.9422C20.2419 33.4109 19.6252 33.883 19.0084 34.3536C18.7962 34.5153 18.586 34.68 18.3694 34.8364C18.0642 35.0549 17.9285 35.0569 17.6248 34.8281C16.8128 34.2166 16.0037 33.5998 15.1946 32.9835C14.9757 32.8169 14.9795 32.8193 14.7572 32.9864C13.95 33.5921 13.1414 34.1943 12.3324 34.797C12.2781 34.8378 12.219 34.8747 12.158 34.9053C11.8406 35.0666 11.5495 34.9316 11.485 34.5775C11.4409 34.3405 11.424 34.0981 11.3978 33.8577C11.2796 32.7936 11.1619 31.7294 11.0451 30.6653C10.9206 29.5322 10.7985 28.3996 10.6759 27.266C10.6701 27.215 10.6672 27.1626 10.658 27.1125C10.6362 26.996 10.5698 26.928 10.4463 26.9275C10.3949 26.9275 10.3426 26.9265 10.2918 26.9265C7.50796 26.9265 4.72513 26.9265 1.94182 26.9265C1.82119 26.9265 1.70007 26.9304 1.57992 26.9338C1.15649 26.9421 0.999517 26.7361 1 26.3568C1.00727 22.9963 1.00339 19.6364 1.00339 16.275ZM17.9717 16.1938C21.2801 16.1938 24.5891 16.1938 27.8986 16.1938C28.0885 16.1938 28.2774 16.1938 28.4673 16.1992C28.8719 16.2108 29.2071 16.3939 29.461 16.6858C30.2807 17.6256 29.8413 18.8913 28.8501 19.2707C28.6103 19.3625 28.3637 19.3799 28.1132 19.3799C27.5711 19.3799 27.028 19.376 26.4858 19.3736C26.2378 19.3727 26.1879 19.4154 26.1481 19.6636C26.1414 19.7058 26.137 19.7486 26.1326 19.7923C26.0488 20.5733 25.9665 21.3547 25.8827 22.1367C25.7533 23.3388 25.6215 24.5403 25.4941 25.7429C25.4636 26.027 25.4994 26.0639 25.778 26.0639C28.4494 26.063 31.1208 26.0615 33.7917 26.0605C33.8431 26.06 33.8954 26.0581 33.9463 26.0571C34.0722 26.0532 34.1347 25.9833 34.141 25.8614C34.1444 25.8007 34.143 25.7405 34.143 25.6798C34.1425 19.3824 34.1396 13.0845 34.1478 6.78709C34.1483 6.468 34.0538 6.2747 33.768 6.13336C33.2191 5.86186 32.6871 5.55831 32.1431 5.27856C30.9619 4.66999 29.7444 4.13817 28.4959 3.68988C27.2794 3.25325 26.0387 2.89579 24.7732 2.61749C23.374 2.30859 21.9637 2.08906 20.5365 1.97347C17.1994 1.70391 13.9088 1.99144 10.6571 2.75979C9.40662 3.0546 8.1775 3.42907 6.97504 3.88075C5.94989 4.26542 4.94121 4.68893 3.96499 5.18482C3.35843 5.49274 2.76737 5.83224 2.16468 6.14988C1.93262 6.27178 1.82119 6.43352 1.84783 6.70841C1.87351 6.96437 1.85607 7.22567 1.85607 7.48502C1.85607 13.558 1.85607 19.6301 1.85607 25.7045C1.85607 25.7652 1.85558 25.8255 1.86043 25.8852C1.86867 25.9979 1.9331 26.0562 2.04501 26.061C2.09588 26.063 2.14772 26.063 2.19956 26.063C4.84528 26.0639 7.49003 26.0654 10.1362 26.0664C10.2055 26.0664 10.2733 26.0683 10.3421 26.0649C10.4439 26.0605 10.503 26.0037 10.5093 25.9032C10.5132 25.8342 10.5093 25.7647 10.5015 25.6968C10.4022 24.7778 10.3 23.8594 10.2002 22.9415C10.0829 21.8594 9.96812 20.7773 9.84797 19.6951C9.816 19.4062 9.77724 19.377 9.48946 19.377C8.93765 19.377 8.38728 19.3746 7.83595 19.3824C7.32483 19.3897 6.89607 19.2226 6.53707 18.8515C5.9339 18.2284 5.9838 17.1468 6.64317 16.5795C6.96922 16.2983 7.33597 16.19 7.76037 16.1909C11.1648 16.1958 14.5682 16.1938 17.9717 16.1938ZM17.9983 18.4989C21.3058 18.4989 24.6138 18.4999 27.9208 18.4989C28.0759 18.4989 28.2324 18.5062 28.385 18.4877C28.68 18.4537 28.8719 18.2697 28.9717 18.0045C29.1412 17.5572 28.7934 17.0622 28.2953 17.0375C28.0289 17.0244 27.7615 17.0346 27.495 17.0346C21.1803 17.0346 14.8667 17.0346 8.55249 17.0346C8.26858 17.0346 7.98371 17.0321 7.69933 17.0365C7.29237 17.0438 6.80256 17.4926 7.0448 18.0521C7.16786 18.3377 7.38975 18.478 7.68721 18.497C7.90135 18.511 8.11791 18.4994 8.3335 18.4994C11.5548 18.4989 14.7765 18.4989 17.9983 18.4989ZM20.9405 21.8467C20.8785 21.7792 20.8339 21.7166 20.7758 21.6724C19.9173 21.0225 19.0574 20.3751 18.1974 19.7262C18.0182 19.5912 17.9944 19.5941 17.8176 19.7282C17.4465 20.0094 17.0744 20.2867 16.7033 20.5679C16.182 20.9638 15.6583 21.3567 15.1394 21.7569C14.95 21.9031 14.9568 21.9638 15.1491 22.1071C15.9902 22.7375 16.8307 23.3689 17.6713 23.9988C17.8912 24.1644 17.9174 24.16 18.1412 23.9915C18.7047 23.5665 19.272 23.145 19.8369 22.721C20.161 22.4781 20.4837 22.2338 20.8054 21.9871C20.8494 21.9531 20.8848 21.906 20.9405 21.8467ZM21.7336 22.4155C21.6687 22.4504 21.6135 22.4733 21.566 22.5082C20.6712 23.1814 19.7768 23.8555 18.882 24.5306C18.6645 24.6943 18.6669 24.7506 18.882 24.9104C19.6814 25.5078 20.4827 26.1072 21.2801 26.7075C21.4909 26.8653 21.4894 26.8697 21.6992 26.7123C22.6028 26.0362 23.5063 25.3607 24.4094 24.6836C24.561 24.5695 24.5615 24.4961 24.4157 24.3883C23.5795 23.7657 22.7433 23.143 21.9071 22.5218C21.8533 22.482 21.7932 22.4519 21.7336 22.4155ZM17.1379 24.704C17.0642 24.6414 17.0046 24.5841 16.9373 24.534C16.0977 23.9055 15.2538 23.2795 14.4156 22.6476C14.1908 22.4786 14.1685 22.4762 13.952 22.6394C13.1831 23.2202 12.4118 23.7992 11.6396 24.3752C11.4453 24.5204 11.4419 24.5632 11.6391 24.7094C12.5 25.3534 13.3619 25.9979 14.2218 26.6434C14.3967 26.7735 14.4432 26.7725 14.6283 26.6332C14.9442 26.3952 15.2605 26.1582 15.5774 25.9207C16.0575 25.5583 16.5391 25.197 17.0201 24.8337C17.0579 24.8046 17.086 24.7618 17.1379 24.704ZM17.9072 25.2791C17.8423 25.3208 17.7754 25.3577 17.7154 25.4039C17.3995 25.6433 17.0875 25.8876 16.7721 26.1256C16.3177 26.4675 15.8584 26.8036 15.4073 27.1485C15.2131 27.2971 15.2155 27.3646 15.3981 27.503C16.2212 28.1276 17.0478 28.7483 17.8699 29.3744C17.9775 29.4564 18.0555 29.455 18.164 29.3705C18.8534 28.8401 19.5486 28.318 20.2419 27.793C20.365 27.6987 20.4904 27.6074 20.6111 27.5098C20.6978 27.4404 20.6905 27.3631 20.6111 27.2917C20.5796 27.2631 20.5403 27.2412 20.5064 27.216C19.6877 26.6001 18.8684 25.9843 18.0492 25.3689C18.0085 25.3388 17.9639 25.315 17.9072 25.2791ZM17.2125 30.0111C17.1437 29.9455 17.0952 29.8887 17.0366 29.8445C16.2256 29.2306 15.4141 28.6186 14.6012 28.0076C14.4466 27.8911 14.4108 27.8911 14.2601 28.0038C13.64 28.47 13.0208 28.9368 12.4031 29.4054C12.2301 29.5366 12.2263 29.6172 12.3929 29.7488C12.609 29.9198 12.8353 30.0781 13.0547 30.2447C13.6371 30.6901 14.2184 31.134 14.7979 31.5833C14.9713 31.7183 14.9897 31.7265 15.1743 31.5881C15.3947 31.4215 15.6118 31.253 15.8327 31.0879C16.2397 30.7833 16.65 30.4812 17.0555 30.1753C17.1088 30.1369 17.148 30.0801 17.2125 30.0111ZM21.0253 31.7057C21.0815 31.6692 21.1338 31.6406 21.1813 31.6041C21.9477 31.0184 22.7137 30.4302 23.4801 29.8445C23.6875 29.6857 23.6851 29.6114 23.4768 29.4545C22.8775 29.0052 22.2786 28.5536 21.6803 28.1014C21.4919 27.9591 21.4768 27.9591 21.2797 28.1087C20.8882 28.4054 20.4967 28.7022 20.1043 28.998C19.7187 29.2879 19.3287 29.5735 18.9459 29.8678C18.7938 29.9839 18.7982 30.0553 18.9474 30.1689C19.5869 30.6522 20.2269 31.1345 20.8679 31.6158C20.9148 31.6498 20.9696 31.6746 21.0253 31.7057ZM20.2627 32.2836C20.1964 32.2122 20.1668 32.17 20.1276 32.1394C19.4735 31.6459 18.8171 31.1578 18.1669 30.6605C18.0453 30.5672 17.9508 30.5866 17.8433 30.6687C17.1975 31.1578 16.5502 31.6445 15.9049 32.134C15.7474 32.2535 15.7479 32.3103 15.9025 32.4279C16.5483 32.9189 17.1936 33.4075 17.8394 33.8966C17.992 34.0122 18.0235 34.0083 18.1751 33.8917C18.7895 33.4172 19.4052 32.9461 20.0205 32.4721C20.0932 32.4172 20.1654 32.3599 20.2627 32.2836ZM11.6619 19.4304C11.7428 19.5145 11.7873 19.5747 11.845 19.6179C12.5039 20.1153 13.1666 20.6097 13.8265 21.107C14.1637 21.362 14.1676 21.3717 14.514 21.1182C15.2077 20.6077 15.8962 20.0895 16.5836 19.5728C16.6238 19.5422 16.6456 19.4853 16.6791 19.4368C16.6355 19.4105 16.6146 19.3862 16.5933 19.3862C15.0013 19.3819 13.4094 19.378 11.8174 19.3775C11.7864 19.377 11.7558 19.3974 11.6619 19.4304ZM25.2373 19.7913C25.139 19.8375 25.0968 19.8501 25.0653 19.8734C24.6187 20.209 24.1734 20.5461 23.7267 20.8836C23.3707 21.1532 23.0131 21.4227 22.6585 21.6952C22.5344 21.7909 22.5218 21.8598 22.6061 21.9478C22.6299 21.9715 22.6604 21.9895 22.688 22.0104C23.3382 22.5034 23.9893 22.9978 24.6405 23.4903C24.7626 23.5835 24.8454 23.5525 24.8779 23.4048C24.8866 23.363 24.8846 23.3184 24.889 23.2751C24.9457 22.7355 25.0009 22.1955 25.0595 21.6559C25.1172 21.126 25.1787 20.5946 25.2364 20.0648C25.2451 19.9924 25.2373 19.9176 25.2373 19.7913ZM19.3606 19.4062C19.3548 19.4266 19.3481 19.447 19.3418 19.4678C19.3999 19.5227 19.4537 19.5839 19.5176 19.632C20.191 20.1391 20.8659 20.6442 21.5403 21.1507C21.7079 21.277 21.7394 21.2824 21.8998 21.1619C22.596 20.6417 23.2897 20.1191 23.9825 19.5951C24.0329 19.5577 24.0693 19.5018 24.1526 19.4091C24.0228 19.393 23.9511 19.378 23.8794 19.378C22.4526 19.3756 21.0243 19.3741 19.5976 19.3746C19.5181 19.3751 19.4401 19.3955 19.3606 19.4062ZM13.4229 21.9108C13.3226 21.8283 13.2577 21.7729 13.1904 21.7209C12.9917 21.5694 12.7912 21.4213 12.593 21.2707C12.0722 20.8754 11.5519 20.4795 11.0301 20.0851C10.9637 20.0351 10.8993 19.9632 10.783 20.0351C10.783 20.1167 10.7748 20.2095 10.785 20.3008C10.8673 21.0546 10.9535 21.8088 11.0374 22.5621C11.0679 22.8366 11.0877 23.1119 11.1241 23.3854C11.1473 23.567 11.2263 23.602 11.36 23.5015C11.9937 23.0269 12.6264 22.5515 13.2577 22.0745C13.3096 22.0357 13.3512 21.9832 13.4229 21.9108ZM24.6128 25.7395C24.5915 25.7293 24.5697 25.7186 24.5489 25.7084C24.4908 25.7405 24.4283 25.7662 24.375 25.8055C23.8832 26.1684 23.3925 26.5341 22.9017 26.8993C22.7355 27.0227 22.5688 27.1456 22.407 27.2738C22.2975 27.3607 22.2912 27.4253 22.3692 27.5103C22.3988 27.5414 22.4366 27.5642 22.471 27.5904C23.0087 28.0076 23.5465 28.4239 24.0862 28.8382C24.1201 28.8649 24.1773 28.8605 24.2597 28.8785C24.3788 27.8177 24.4956 26.7789 24.6128 25.7395ZM14.2155 32.2836C14.1569 32.2142 14.1336 32.1758 14.1017 32.151C13.4593 31.6576 12.8178 31.1627 12.1739 30.6721C12.1182 30.6299 12.048 30.6075 11.9613 30.5638C11.9496 30.6537 11.9327 30.7032 11.9375 30.7513C12.0339 31.6527 12.1313 32.5532 12.2326 33.4541C12.2568 33.6717 12.3425 33.7072 12.5165 33.5765C12.9515 33.2511 13.3861 32.9267 13.8187 32.5993C13.9462 32.5022 14.0682 32.3997 14.2155 32.2836ZM24.0494 30.556C23.937 30.6143 23.8735 30.6362 23.8222 30.6745C23.1928 31.1539 22.564 31.6347 21.9371 32.1165C21.7879 32.2312 21.7922 32.3035 21.9434 32.4148C22.3242 32.695 22.705 32.9752 23.0853 33.256C23.2302 33.3633 23.3697 33.4784 23.516 33.5833C23.641 33.6722 23.7248 33.6358 23.7577 33.4867C23.765 33.4536 23.764 33.4182 23.767 33.3832C23.8614 32.5357 23.9559 31.6891 24.0479 30.8406C24.0557 30.7663 24.0494 30.6906 24.0494 30.556ZM11.3959 25.6632C11.3959 25.8055 11.3881 25.8803 11.3973 25.9527C11.4705 26.586 11.549 27.2174 11.6216 27.8503C11.6502 28.0892 11.6638 28.3301 11.6958 28.5681C11.7045 28.6284 11.7447 28.6997 11.7922 28.7299C11.8203 28.7478 11.9012 28.7056 11.9443 28.6716C12.4496 28.2864 12.953 27.8964 13.4573 27.5093C13.6579 27.3549 13.654 27.3024 13.4491 27.1494C12.8406 26.6987 12.2374 26.2432 11.6313 25.7915C11.5805 25.7536 11.5189 25.7293 11.3959 25.6632Z" fill="#EDC268"/>
<path fill-rule="evenodd" clip-rule="evenodd" d="M1.00339 16.275C1.00339 12.9582 1.00339 9.64146 1.00339 6.32424C1.00339 6.28101 1.00727 6.23681 1.00291 6.19407C0.98256 5.96192 1.08382 5.79533 1.27664 5.6773C1.45299 5.569 1.62691 5.45535 1.8052 5.35141C3.70434 4.2455 5.70183 3.36107 7.78992 2.68063C9.12659 2.24497 10.486 1.90207 11.8644 1.62572C13.6942 1.25951 15.5415 1.06524 17.4053 1.01084C18.9857 0.966159 20.5578 1.06135 22.1226 1.26388C23.7568 1.47564 25.3638 1.82048 26.948 2.28139C28.2488 2.65926 29.522 3.1158 30.7642 3.652C31.848 4.1202 32.8983 4.66076 33.9312 5.23193C34.158 5.35724 34.3823 5.48546 34.6085 5.60979C34.8692 5.75307 35.0005 5.94152 35 6.26984C34.9889 12.7406 34.9893 19.2104 34.9889 25.6802C34.9889 25.9313 34.9918 26.182 34.9879 26.4321C34.9826 26.7716 34.8363 26.9226 34.4961 26.9265C33.8925 26.9314 33.2898 26.9275 32.6871 26.9275C30.3515 26.9275 28.0158 26.9265 25.6811 26.9255C25.3803 26.9255 25.3604 26.9396 25.327 27.2393C25.2364 28.0543 25.1521 28.8702 25.0595 29.6852C24.9442 30.7149 24.8212 31.7435 24.7064 32.7732C24.6468 33.305 24.5964 33.8383 24.5416 34.3711C24.5353 34.4308 24.5315 34.4915 24.5218 34.5508C24.4578 34.935 24.141 35.0914 23.8188 34.8772C23.4671 34.6431 23.1333 34.3827 22.7936 34.1316C22.2612 33.7368 21.7312 33.3361 21.1978 32.9412C21.0369 32.8222 21.018 32.8213 20.8596 32.9422C20.2419 33.4109 19.6252 33.883 19.0084 34.3536C18.7962 34.5153 18.586 34.68 18.3694 34.8364C18.0642 35.0549 17.9285 35.0569 17.6248 34.8281C16.8128 34.2166 16.0037 33.5998 15.1946 32.9835C14.9757 32.8169 14.9795 32.8193 14.7572 32.9864C13.95 33.5921 13.1414 34.1943 12.3324 34.797C12.2781 34.8378 12.219 34.8747 12.158 34.9053C11.8406 35.0666 11.5495 34.9316 11.485 34.5775C11.4409 34.3405 11.424 34.0981 11.3978 33.8577C11.2796 32.7936 11.1619 31.7294 11.0451 30.6653C10.9206 29.5322 10.7985 28.3996 10.6759 27.266C10.6701 27.215 10.6672 27.1626 10.658 27.1125C10.6362 26.996 10.5698 26.928 10.4463 26.9275C10.3949 26.9275 10.3426 26.9265 10.2918 26.9265C7.50796 26.9265 4.72513 26.9265 1.94182 26.9265C1.82119 26.9265 1.70007 26.9304 1.57992 26.9338C1.15649 26.9421 0.999517 26.7361 1 26.3568C1.00727 22.9963 1.00339 19.6364 1.00339 16.275ZM17.9717 16.1938C21.2801 16.1938 24.5891 16.1938 27.8986 16.1938C28.0885 16.1938 28.2774 16.1938 28.4673 16.1992C28.8719 16.2108 29.2071 16.3939 29.461 16.6858C30.2807 17.6256 29.8413 18.8913 28.8501 19.2707C28.6103 19.3625 28.3637 19.3799 28.1132 19.3799C27.5711 19.3799 27.028 19.376 26.4858 19.3736C26.2378 19.3727 26.1879 19.4154 26.1481 19.6636C26.1414 19.7058 26.137 19.7486 26.1326 19.7923C26.0488 20.5733 25.9665 21.3547 25.8827 22.1367C25.7533 23.3388 25.6215 24.5403 25.4941 25.7429C25.4636 26.027 25.4994 26.0639 25.778 26.0639C28.4494 26.063 31.1208 26.0615 33.7917 26.0605C33.8431 26.06 33.8954 26.0581 33.9463 26.0571C34.0722 26.0532 34.1347 25.9833 34.141 25.8614C34.1444 25.8007 34.143 25.7405 34.143 25.6798C34.1425 19.3824 34.1396 13.0845 34.1478 6.78709C34.1483 6.468 34.0538 6.2747 33.768 6.13336C33.2191 5.86186 32.6871 5.55831 32.1431 5.27856C30.9619 4.66999 29.7444 4.13817 28.4959 3.68988C27.2794 3.25325 26.0387 2.89579 24.7732 2.61749C23.374 2.30859 21.9637 2.08906 20.5365 1.97347C17.1994 1.70391 13.9088 1.99144 10.6571 2.75979C9.40662 3.0546 8.1775 3.42907 6.97504 3.88075C5.94989 4.26542 4.94121 4.68893 3.96499 5.18482C3.35843 5.49274 2.76737 5.83224 2.16468 6.14988C1.93262 6.27178 1.82119 6.43352 1.84783 6.70841C1.87351 6.96437 1.85607 7.22567 1.85607 7.48502C1.85607 13.558 1.85607 19.6301 1.85607 25.7045C1.85607 25.7652 1.85558 25.8255 1.86043 25.8852C1.86867 25.9979 1.9331 26.0562 2.04501 26.061C2.09588 26.063 2.14772 26.063 2.19956 26.063C4.84528 26.0639 7.49003 26.0654 10.1362 26.0664C10.2055 26.0664 10.2733 26.0683 10.3421 26.0649C10.4439 26.0605 10.503 26.0037 10.5093 25.9032C10.5132 25.8342 10.5093 25.7647 10.5015 25.6968C10.4022 24.7778 10.3 23.8594 10.2002 22.9415C10.0829 21.8594 9.96812 20.7773 9.84797 19.6951C9.816 19.4062 9.77724 19.377 9.48946 19.377C8.93765 19.377 8.38728 19.3746 7.83595 19.3824C7.32483 19.3897 6.89607 19.2226 6.53707 18.8515C5.9339 18.2284 5.9838 17.1468 6.64317 16.5795C6.96922 16.2983 7.33597 16.19 7.76037 16.1909C11.1648 16.1958 14.5682 16.1938 17.9717 16.1938ZM17.9983 18.4989C21.3058 18.4989 24.6138 18.4999 27.9208 18.4989C28.0759 18.4989 28.2324 18.5062 28.385 18.4877C28.68 18.4537 28.8719 18.2697 28.9717 18.0045C29.1412 17.5572 28.7934 17.0622 28.2953 17.0375C28.0289 17.0244 27.7615 17.0346 27.495 17.0346C21.1803 17.0346 14.8667 17.0346 8.55249 17.0346C8.26858 17.0346 7.98371 17.0321 7.69933 17.0365C7.29237 17.0438 6.80256 17.4926 7.0448 18.0521C7.16786 18.3377 7.38975 18.478 7.68721 18.497C7.90135 18.511 8.11791 18.4994 8.3335 18.4994C11.5548 18.4989 14.7765 18.4989 17.9983 18.4989ZM20.9405 21.8467C20.8785 21.7792 20.8339 21.7166 20.7758 21.6724C19.9173 21.0225 19.0574 20.3751 18.1974 19.7262C18.0182 19.5912 17.9944 19.5941 17.8176 19.7282C17.4465 20.0094 17.0744 20.2867 16.7033 20.5679C16.182 20.9638 15.6583 21.3567 15.1394 21.7569C14.95 21.9031 14.9568 21.9638 15.1491 22.1071C15.9902 22.7375 16.8307 23.3689 17.6713 23.9988C17.8912 24.1644 17.9174 24.16 18.1412 23.9915C18.7047 23.5665 19.272 23.145 19.8369 22.721C20.161 22.4781 20.4837 22.2338 20.8054 21.9871C20.8494 21.9531 20.8848 21.906 20.9405 21.8467ZM21.7336 22.4155C21.6687 22.4504 21.6135 22.4733 21.566 22.5082C20.6712 23.1814 19.7768 23.8555 18.882 24.5306C18.6645 24.6943 18.6669 24.7506 18.882 24.9104C19.6814 25.5078 20.4827 26.1072 21.2801 26.7075C21.4909 26.8653 21.4894 26.8697 21.6992 26.7123C22.6028 26.0362 23.5063 25.3607 24.4094 24.6836C24.561 24.5695 24.5615 24.4961 24.4157 24.3883C23.5795 23.7657 22.7433 23.143 21.9071 22.5218C21.8533 22.482 21.7932 22.4519 21.7336 22.4155ZM17.1379 24.704C17.0642 24.6414 17.0046 24.5841 16.9373 24.534C16.0977 23.9055 15.2538 23.2795 14.4156 22.6476C14.1908 22.4786 14.1685 22.4762 13.952 22.6394C13.1831 23.2202 12.4118 23.7992 11.6396 24.3752C11.4453 24.5204 11.4419 24.5632 11.6391 24.7094C12.5 25.3534 13.3619 25.9979 14.2218 26.6434C14.3967 26.7735 14.4432 26.7725 14.6283 26.6332C14.9442 26.3952 15.2605 26.1582 15.5774 25.9207C16.0575 25.5583 16.5391 25.197 17.0201 24.8337C17.0579 24.8046 17.086 24.7618 17.1379 24.704ZM17.9072 25.2791C17.8423 25.3208 17.7754 25.3577 17.7154 25.4039C17.3995 25.6433 17.0875 25.8876 16.7721 26.1256C16.3177 26.4675 15.8584 26.8036 15.4073 27.1485C15.2131 27.2971 15.2155 27.3646 15.3981 27.503C16.2212 28.1276 17.0478 28.7483 17.8699 29.3744C17.9775 29.4564 18.0555 29.455 18.164 29.3705C18.8534 28.8401 19.5486 28.318 20.2419 27.793C20.365 27.6987 20.4904 27.6074 20.6111 27.5098C20.6978 27.4404 20.6905 27.3631 20.6111 27.2917C20.5796 27.2631 20.5403 27.2412 20.5064 27.216C19.6877 26.6001 18.8684 25.9843 18.0492 25.3689C18.0085 25.3388 17.9639 25.315 17.9072 25.2791ZM17.2125 30.0111C17.1437 29.9455 17.0952 29.8887 17.0366 29.8445C16.2256 29.2306 15.4141 28.6186 14.6012 28.0076C14.4466 27.8911 14.4108 27.8911 14.2601 28.0038C13.64 28.47 13.0208 28.9368 12.4031 29.4054C12.2301 29.5366 12.2263 29.6172 12.3929 29.7488C12.609 29.9198 12.8353 30.0781 13.0547 30.2447C13.6371 30.6901 14.2184 31.134 14.7979 31.5833C14.9713 31.7183 14.9897 31.7265 15.1743 31.5881C15.3947 31.4215 15.6118 31.253 15.8327 31.0879C16.2397 30.7833 16.65 30.4812 17.0555 30.1753C17.1088 30.1369 17.148 30.0801 17.2125 30.0111ZM21.0253 31.7057C21.0815 31.6692 21.1338 31.6406 21.1813 31.6041C21.9477 31.0184 22.7137 30.4302 23.4801 29.8445C23.6875 29.6857 23.6851 29.6114 23.4768 29.4545C22.8775 29.0052 22.2786 28.5536 21.6803 28.1014C21.4919 27.9591 21.4768 27.9591 21.2797 28.1087C20.8882 28.4054 20.4967 28.7022 20.1043 28.998C19.7187 29.2879 19.3287 29.5735 18.9459 29.8678C18.7938 29.9839 18.7982 30.0553 18.9474 30.1689C19.5869 30.6522 20.2269 31.1345 20.8679 31.6158C20.9148 31.6498 20.9696 31.6746 21.0253 31.7057ZM20.2627 32.2836C20.1964 32.2122 20.1668 32.17 20.1276 32.1394C19.4735 31.6459 18.8171 31.1578 18.1669 30.6605C18.0453 30.5672 17.9508 30.5866 17.8433 30.6687C17.1975 31.1578 16.5502 31.6445 15.9049 32.134C15.7474 32.2535 15.7479 32.3103 15.9025 32.4279C16.5483 32.9189 17.1936 33.4075 17.8394 33.8966C17.992 34.0122 18.0235 34.0083 18.1751 33.8917C18.7895 33.4172 19.4052 32.9461 20.0205 32.4721C20.0932 32.4172 20.1654 32.3599 20.2627 32.2836ZM11.6619 19.4304C11.7428 19.5145 11.7873 19.5747 11.845 19.6179C12.5039 20.1153 13.1666 20.6097 13.8265 21.107C14.1637 21.362 14.1676 21.3717 14.514 21.1182C15.2077 20.6077 15.8962 20.0895 16.5836 19.5728C16.6238 19.5422 16.6456 19.4853 16.6791 19.4368C16.6355 19.4105 16.6146 19.3862 16.5933 19.3862C15.0013 19.3819 13.4094 19.378 11.8174 19.3775C11.7864 19.377 11.7558 19.3974 11.6619 19.4304ZM25.2373 19.7913C25.139 19.8375 25.0968 19.8501 25.0653 19.8734C24.6187 20.209 24.1734 20.5461 23.7267 20.8836C23.3707 21.1532 23.0131 21.4227 22.6585 21.6952C22.5344 21.7909 22.5218 21.8598 22.6061 21.9478C22.6299 21.9715 22.6604 21.9895 22.688 22.0104C23.3382 22.5034 23.9893 22.9978 24.6405 23.4903C24.7626 23.5835 24.8454 23.5525 24.8779 23.4048C24.8866 23.363 24.8846 23.3184 24.889 23.2751C24.9457 22.7355 25.0009 22.1955 25.0595 21.6559C25.1172 21.126 25.1787 20.5946 25.2364 20.0648C25.2451 19.9924 25.2373 19.9176 25.2373 19.7913ZM19.3606 19.4062C19.3548 19.4266 19.3481 19.447 19.3418 19.4678C19.3999 19.5227 19.4537 19.5839 19.5176 19.632C20.191 20.1391 20.8659 20.6442 21.5403 21.1507C21.7079 21.277 21.7394 21.2824 21.8998 21.1619C22.596 20.6417 23.2897 20.1191 23.9825 19.5951C24.0329 19.5577 24.0693 19.5018 24.1526 19.4091C24.0228 19.393 23.9511 19.378 23.8794 19.378C22.4526 19.3756 21.0243 19.3741 19.5976 19.3746C19.5181 19.3751 19.4401 19.3955 19.3606 19.4062ZM13.4229 21.9108C13.3226 21.8283 13.2577 21.7729 13.1904 21.7209C12.9917 21.5694 12.7912 21.4213 12.593 21.2707C12.0722 20.8754 11.5519 20.4795 11.0301 20.0851C10.9637 20.0351 10.8993 19.9632 10.783 20.0351C10.783 20.1167 10.7748 20.2095 10.785 20.3008C10.8673 21.0546 10.9535 21.8088 11.0374 22.5621C11.0679 22.8366 11.0877 23.1119 11.1241 23.3854C11.1473 23.567 11.2263 23.602 11.36 23.5015C11.9937 23.0269 12.6264 22.5515 13.2577 22.0745C13.3096 22.0357 13.3512 21.9832 13.4229 21.9108ZM24.6128 25.7395C24.5915 25.7293 24.5697 25.7186 24.5489 25.7084C24.4908 25.7405 24.4283 25.7662 24.375 25.8055C23.8832 26.1684 23.3925 26.5341 22.9017 26.8993C22.7355 27.0227 22.5688 27.1456 22.407 27.2738C22.2975 27.3607 22.2912 27.4253 22.3692 27.5103C22.3988 27.5414 22.4366 27.5642 22.471 27.5904C23.0087 28.0076 23.5465 28.4239 24.0862 28.8382C24.1201 28.8649 24.1773 28.8605 24.2597 28.8785C24.3788 27.8177 24.4956 26.7789 24.6128 25.7395ZM14.2155 32.2836C14.1569 32.2142 14.1336 32.1758 14.1017 32.151C13.4593 31.6576 12.8178 31.1627 12.1739 30.6721C12.1182 30.6299 12.048 30.6075 11.9613 30.5638C11.9496 30.6537 11.9327 30.7032 11.9375 30.7513C12.0339 31.6527 12.1313 32.5532 12.2326 33.4541C12.2568 33.6717 12.3425 33.7072 12.5165 33.5765C12.9515 33.2511 13.3861 32.9267 13.8187 32.5993C13.9462 32.5022 14.0682 32.3997 14.2155 32.2836ZM24.0494 30.556C23.937 30.6143 23.8735 30.6362 23.8222 30.6745C23.1928 31.1539 22.564 31.6347 21.9371 32.1165C21.7879 32.2312 21.7922 32.3035 21.9434 32.4148C22.3242 32.695 22.705 32.9752 23.0853 33.256C23.2302 33.3633 23.3697 33.4784 23.516 33.5833C23.641 33.6722 23.7248 33.6358 23.7577 33.4867C23.765 33.4536 23.764 33.4182 23.767 33.3832C23.8614 32.5357 23.9559 31.6891 24.0479 30.8406C24.0557 30.7663 24.0494 30.6906 24.0494 30.556ZM11.3959 25.6632C11.3959 25.8055 11.3881 25.8803 11.3973 25.9527C11.4705 26.586 11.549 27.2174 11.6216 27.8503C11.6502 28.0892 11.6638 28.3301 11.6958 28.5681C11.7045 28.6284 11.7447 28.6997 11.7922 28.7299C11.8203 28.7478 11.9012 28.7056 11.9443 28.6716C12.4496 28.2864 12.953 27.8964 13.4573 27.5093C13.6579 27.3549 13.654 27.3024 13.4491 27.1494C12.8406 26.6987 12.2374 26.2432 11.6313 25.7915C11.5805 25.7536 11.5189 25.7293 11.3959 25.6632Z" stroke="#EDC268" stroke-width="0.4" mask="url(#path-1-outside-1)"/>
</svg>
