<svg width="44" height="44" viewBox="0 0 44 44" fill="none" xmlns="http://www.w3.org/2000/svg">
<g filter="url(#filter0_d)">
<mask id="path-1-outside-1" maskUnits="userSpaceOnUse" x="4" y="4" width="36" height="36" fill="black">
<rect fill="white" x="4" y="4" width="36" height="36"/>
<path fill-rule="evenodd" clip-rule="evenodd" d="M5.00339 20.275C5.00339 16.9582 5.00339 13.6415 5.00339 10.3242C5.00339 10.281 5.00727 10.2368 5.00291 10.1941C4.98256 9.96192 5.08382 9.79533 5.27664 9.6773C5.45299 9.569 5.62691 9.45535 5.8052 9.35141C7.70434 8.2455 9.70183 7.36107 11.7899 6.68063C13.1266 6.24497 14.486 5.90207 15.8644 5.62572C17.6942 5.25951 19.5415 5.06524 21.4053 5.01084C22.9857 4.96616 24.5578 5.06135 26.1226 5.26388C27.7568 5.47564 29.3638 5.82048 30.948 6.28139C32.2488 6.65926 33.522 7.1158 34.7642 7.652C35.848 8.1202 36.8983 8.66076 37.9312 9.23193C38.158 9.35724 38.3823 9.48546 38.6085 9.60979C38.8692 9.75307 39.0005 9.94152 39 10.2698C38.9889 16.7406 38.9893 23.2104 38.9889 29.6802C38.9889 29.9313 38.9918 30.182 38.9879 30.4321C38.9826 30.7716 38.8363 30.9226 38.4961 30.9265C37.8925 30.9314 37.2898 30.9275 36.6871 30.9275C34.3515 30.9275 32.0158 30.9265 29.6811 30.9255C29.3803 30.9255 29.3604 30.9396 29.327 31.2393C29.2364 32.0543 29.1521 32.8702 29.0595 33.6852C28.9442 34.7149 28.8212 35.7435 28.7064 36.7732C28.6468 37.305 28.5964 37.8383 28.5416 38.3711C28.5353 38.4308 28.5315 38.4915 28.5218 38.5508C28.4578 38.935 28.141 39.0914 27.8188 38.8772C27.4671 38.6431 27.1333 38.3827 26.7936 38.1316C26.2612 37.7368 25.7312 37.3361 25.1978 36.9412C25.0369 36.8222 25.018 36.8213 24.8596 36.9422C24.2419 37.4109 23.6252 37.883 23.0084 38.3536C22.7962 38.5153 22.586 38.68 22.3694 38.8364C22.0642 39.0549 21.9285 39.0569 21.6248 38.8281C20.8128 38.2166 20.0037 37.5998 19.1946 36.9835C18.9757 36.8169 18.9795 36.8193 18.7572 36.9864C17.95 37.5921 17.1414 38.1943 16.3324 38.797C16.2781 38.8378 16.219 38.8747 16.158 38.9053C15.8406 39.0666 15.5495 38.9316 15.485 38.5775C15.4409 38.3405 15.424 38.0981 15.3978 37.8577C15.2796 36.7936 15.1619 35.7294 15.0451 34.6653C14.9206 33.5322 14.7985 32.3996 14.6759 31.266C14.6701 31.215 14.6672 31.1626 14.658 31.1125C14.6362 30.996 14.5698 30.928 14.4463 30.9275C14.3949 30.9275 14.3426 30.9265 14.2918 30.9265C11.508 30.9265 8.72513 30.9265 5.94182 30.9265C5.82119 30.9265 5.70007 30.9304 5.57992 30.9338C5.15649 30.9421 4.99952 30.7361 5 30.3568C5.00727 26.9963 5.00339 23.6364 5.00339 20.275ZM21.9717 20.1938C25.2801 20.1938 28.5891 20.1938 31.8986 20.1938C32.0885 20.1938 32.2774 20.1938 32.4673 20.1992C32.8719 20.2108 33.2071 20.3939 33.461 20.6858C34.2807 21.6256 33.8413 22.8913 32.8501 23.2707C32.6103 23.3625 32.3637 23.3799 32.1132 23.3799C31.5711 23.3799 31.028 23.376 30.4858 23.3736C30.2378 23.3727 30.1879 23.4154 30.1481 23.6636C30.1414 23.7058 30.137 23.7486 30.1326 23.7923C30.0488 24.5733 29.9665 25.3547 29.8827 26.1367C29.7533 27.3388 29.6215 28.5403 29.4941 29.7429C29.4636 30.027 29.4994 30.0639 29.778 30.0639C32.4494 30.063 35.1208 30.0615 37.7917 30.0605C37.8431 30.06 37.8954 30.0581 37.9463 30.0571C38.0722 30.0532 38.1347 29.9833 38.141 29.8614C38.1444 29.8007 38.143 29.7405 38.143 29.6798C38.1425 23.3824 38.1396 17.0845 38.1478 10.7871C38.1483 10.468 38.0538 10.2747 37.768 10.1334C37.2191 9.86186 36.6871 9.55831 36.1431 9.27856C34.9619 8.66999 33.7444 8.13817 32.4959 7.68988C31.2794 7.25325 30.0387 6.89579 28.7732 6.61749C27.374 6.30859 25.9637 6.08906 24.5365 5.97347C21.1994 5.70391 17.9088 5.99144 14.6571 6.75979C13.4066 7.0546 12.1775 7.42907 10.975 7.88075C9.94989 8.26542 8.94121 8.68893 7.96499 9.18482C7.35843 9.49274 6.76737 9.83224 6.16468 10.1499C5.93262 10.2718 5.82119 10.4335 5.84783 10.7084C5.87351 10.9644 5.85607 11.2257 5.85607 11.485C5.85607 17.558 5.85607 23.6301 5.85607 29.7045C5.85607 29.7652 5.85558 29.8255 5.86043 29.8852C5.86867 29.9979 5.9331 30.0562 6.04501 30.061C6.09588 30.063 6.14772 30.063 6.19956 30.063C8.84528 30.0639 11.49 30.0654 14.1362 30.0664C14.2055 30.0664 14.2733 30.0683 14.3421 30.0649C14.4439 30.0605 14.503 30.0037 14.5093 29.9032C14.5132 29.8342 14.5093 29.7647 14.5015 29.6968C14.4022 28.7778 14.3 27.8594 14.2002 26.9415C14.0829 25.8594 13.9681 24.7773 13.848 23.6951C13.816 23.4062 13.7772 23.377 13.4895 23.377C12.9376 23.377 12.3873 23.3746 11.8359 23.3824C11.3248 23.3897 10.8961 23.2226 10.5371 22.8515C9.9339 22.2284 9.9838 21.1468 10.6432 20.5795C10.9692 20.2983 11.336 20.19 11.7604 20.1909C15.1648 20.1958 18.5682 20.1938 21.9717 20.1938ZM21.9983 22.4989C25.3058 22.4989 28.6138 22.4999 31.9208 22.4989C32.0759 22.4989 32.2324 22.5062 32.385 22.4877C32.68 22.4537 32.8719 22.2697 32.9717 22.0045C33.1412 21.5572 32.7934 21.0622 32.2953 21.0375C32.0289 21.0244 31.7615 21.0346 31.495 21.0346C25.1803 21.0346 18.8667 21.0346 12.5525 21.0346C12.2686 21.0346 11.9837 21.0321 11.6993 21.0365C11.2924 21.0438 10.8026 21.4926 11.0448 22.0521C11.1679 22.3377 11.3897 22.478 11.6872 22.497C11.9014 22.511 12.1179 22.4994 12.3335 22.4994C15.5548 22.4989 18.7765 22.4989 21.9983 22.4989ZM24.9405 25.8467C24.8785 25.7792 24.8339 25.7166 24.7758 25.6724C23.9173 25.0225 23.0574 24.3751 22.1974 23.7262C22.0182 23.5912 21.9944 23.5941 21.8176 23.7282C21.4465 24.0094 21.0744 24.2867 20.7033 24.5679C20.182 24.9638 19.6583 25.3567 19.1394 25.7569C18.95 25.9031 18.9568 25.9638 19.1491 26.1071C19.9902 26.7375 20.8307 27.3689 21.6713 27.9988C21.8912 28.1644 21.9174 28.16 22.1412 27.9915C22.7047 27.5665 23.272 27.145 23.8369 26.721C24.161 26.4781 24.4837 26.2338 24.8054 25.9871C24.8494 25.9531 24.8848 25.906 24.9405 25.8467ZM25.7336 26.4155C25.6687 26.4504 25.6135 26.4733 25.566 26.5082C24.6712 27.1814 23.7768 27.8555 22.882 28.5306C22.6645 28.6943 22.6669 28.7506 22.882 28.9104C23.6814 29.5078 24.4827 30.1072 25.2801 30.7075C25.4909 30.8653 25.4894 30.8697 25.6992 30.7123C26.6028 30.0362 27.5063 29.3607 28.4094 28.6836C28.561 28.5695 28.5615 28.4961 28.4157 28.3883C27.5795 27.7657 26.7433 27.143 25.9071 26.5218C25.8533 26.482 25.7932 26.4519 25.7336 26.4155ZM21.1379 28.704C21.0642 28.6414 21.0046 28.5841 20.9373 28.534C20.0977 27.9055 19.2538 27.2795 18.4156 26.6476C18.1908 26.4786 18.1685 26.4762 17.952 26.6394C17.1831 27.2202 16.4118 27.7992 15.6396 28.3752C15.4453 28.5204 15.4419 28.5632 15.6391 28.7094C16.5 29.3534 17.3619 29.9979 18.2218 30.6434C18.3967 30.7735 18.4432 30.7725 18.6283 30.6332C18.9442 30.3952 19.2605 30.1582 19.5774 29.9207C20.0575 29.5583 20.5391 29.197 21.0201 28.8337C21.0579 28.8046 21.086 28.7618 21.1379 28.704ZM21.9072 29.2791C21.8423 29.3208 21.7754 29.3577 21.7154 29.4039C21.3995 29.6433 21.0875 29.8876 20.7721 30.1256C20.3177 30.4675 19.8584 30.8036 19.4073 31.1485C19.2131 31.2971 19.2155 31.3646 19.3981 31.503C20.2212 32.1276 21.0478 32.7483 21.8699 33.3744C21.9775 33.4564 22.0555 33.455 22.164 33.3705C22.8534 32.8401 23.5486 32.318 24.2419 31.793C24.365 31.6987 24.4904 31.6074 24.6111 31.5098C24.6978 31.4404 24.6905 31.3631 24.6111 31.2917C24.5796 31.2631 24.5403 31.2412 24.5064 31.216C23.6877 30.6001 22.8684 29.9843 22.0492 29.3689C22.0085 29.3388 21.9639 29.315 21.9072 29.2791ZM21.2125 34.0111C21.1437 33.9455 21.0952 33.8887 21.0366 33.8445C20.2256 33.2306 19.4141 32.6186 18.6012 32.0076C18.4466 31.8911 18.4108 31.8911 18.2601 32.0038C17.64 32.47 17.0208 32.9368 16.4031 33.4054C16.2301 33.5366 16.2263 33.6172 16.3929 33.7488C16.609 33.9198 16.8353 34.0781 17.0547 34.2447C17.6371 34.6901 18.2184 35.134 18.7979 35.5833C18.9713 35.7183 18.9897 35.7265 19.1743 35.5881C19.3947 35.4215 19.6118 35.253 19.8327 35.0879C20.2397 34.7833 20.65 34.4812 21.0555 34.1753C21.1088 34.1369 21.148 34.0801 21.2125 34.0111ZM25.0253 35.7057C25.0815 35.6692 25.1338 35.6406 25.1813 35.6041C25.9477 35.0184 26.7137 34.4302 27.4801 33.8445C27.6875 33.6857 27.6851 33.6114 27.4768 33.4545C26.8775 33.0052 26.2786 32.5536 25.6803 32.1014C25.4919 31.9591 25.4768 31.9591 25.2797 32.1087C24.8882 32.4054 24.4967 32.7022 24.1043 32.998C23.7187 33.2879 23.3287 33.5735 22.9459 33.8678C22.7938 33.9839 22.7982 34.0553 22.9474 34.1689C23.5869 34.6522 24.2269 35.1345 24.8679 35.6158C24.9148 35.6498 24.9696 35.6746 25.0253 35.7057ZM24.2627 36.2836C24.1964 36.2122 24.1668 36.17 24.1276 36.1394C23.4735 35.6459 22.8171 35.1578 22.1669 34.6605C22.0453 34.5672 21.9508 34.5866 21.8433 34.6687C21.1975 35.1578 20.5502 35.6445 19.9049 36.134C19.7474 36.2535 19.7479 36.3103 19.9025 36.4279C20.5483 36.9189 21.1936 37.4075 21.8394 37.8966C21.992 38.0122 22.0235 38.0083 22.1751 37.8917C22.7895 37.4172 23.4052 36.9461 24.0205 36.4721C24.0932 36.4172 24.1654 36.3599 24.2627 36.2836ZM15.6619 23.4304C15.7428 23.5145 15.7873 23.5747 15.845 23.6179C16.5039 24.1153 17.1666 24.6097 17.8265 25.107C18.1637 25.362 18.1676 25.3717 18.514 25.1182C19.2077 24.6077 19.8962 24.0895 20.5836 23.5728C20.6238 23.5422 20.6456 23.4853 20.6791 23.4368C20.6355 23.4105 20.6146 23.3862 20.5933 23.3862C19.0013 23.3819 17.4094 23.378 15.8174 23.3775C15.7864 23.377 15.7558 23.3974 15.6619 23.4304ZM29.2373 23.7913C29.139 23.8375 29.0968 23.8501 29.0653 23.8734C28.6187 24.209 28.1734 24.5461 27.7267 24.8836C27.3707 25.1532 27.0131 25.4227 26.6585 25.6952C26.5344 25.7909 26.5218 25.8598 26.6061 25.9478C26.6299 25.9715 26.6604 25.9895 26.688 26.0104C27.3382 26.5034 27.9893 26.9978 28.6405 27.4903C28.7626 27.5835 28.8454 27.5525 28.8779 27.4048C28.8866 27.363 28.8846 27.3184 28.889 27.2751C28.9457 26.7355 29.0009 26.1955 29.0595 25.6559C29.1172 25.126 29.1787 24.5946 29.2364 24.0648C29.2451 23.9924 29.2373 23.9176 29.2373 23.7913ZM23.3606 23.4062C23.3548 23.4266 23.3481 23.447 23.3418 23.4678C23.3999 23.5227 23.4537 23.5839 23.5176 23.632C24.191 24.1391 24.8659 24.6442 25.5403 25.1507C25.7079 25.277 25.7394 25.2824 25.8998 25.1619C26.596 24.6417 27.2897 24.1191 27.9825 23.5951C28.0329 23.5577 28.0693 23.5018 28.1526 23.4091C28.0228 23.393 27.9511 23.378 27.8794 23.378C26.4526 23.3756 25.0243 23.3741 23.5976 23.3746C23.5181 23.3751 23.4401 23.3955 23.3606 23.4062ZM17.4229 25.9108C17.3226 25.8283 17.2577 25.7729 17.1904 25.7209C16.9917 25.5694 16.7912 25.4213 16.593 25.2707C16.0722 24.8754 15.5519 24.4795 15.0301 24.0851C14.9637 24.0351 14.8993 23.9632 14.783 24.0351C14.783 24.1167 14.7748 24.2095 14.785 24.3008C14.8673 25.0546 14.9535 25.8088 15.0374 26.5621C15.0679 26.8366 15.0877 27.1119 15.1241 27.3854C15.1473 27.567 15.2263 27.602 15.36 27.5015C15.9937 27.0269 16.6264 26.5515 17.2577 26.0745C17.3096 26.0357 17.3512 25.9832 17.4229 25.9108ZM28.6128 29.7395C28.5915 29.7293 28.5697 29.7186 28.5489 29.7084C28.4908 29.7405 28.4283 29.7662 28.375 29.8055C27.8832 30.1684 27.3925 30.5341 26.9017 30.8993C26.7355 31.0227 26.5688 31.1456 26.407 31.2738C26.2975 31.3607 26.2912 31.4253 26.3692 31.5103C26.3988 31.5414 26.4366 31.5642 26.471 31.5904C27.0087 32.0076 27.5465 32.4239 28.0862 32.8382C28.1201 32.8649 28.1773 32.8605 28.2597 32.8785C28.3788 31.8177 28.4956 30.7789 28.6128 29.7395ZM18.2155 36.2836C18.1569 36.2142 18.1336 36.1758 18.1017 36.151C17.4593 35.6576 16.8178 35.1627 16.1739 34.6721C16.1182 34.6299 16.048 34.6075 15.9613 34.5638C15.9496 34.6537 15.9327 34.7032 15.9375 34.7513C16.0339 35.6527 16.1313 36.5532 16.2326 37.4541C16.2568 37.6717 16.3425 37.7072 16.5165 37.5765C16.9515 37.2511 17.3861 36.9267 17.8187 36.5993C17.9462 36.5022 18.0682 36.3997 18.2155 36.2836ZM28.0494 34.556C27.937 34.6143 27.8735 34.6362 27.8222 34.6745C27.1928 35.1539 26.564 35.6347 25.9371 36.1165C25.7879 36.2312 25.7922 36.3035 25.9434 36.4148C26.3242 36.695 26.705 36.9752 27.0853 37.256C27.2302 37.3633 27.3697 37.4784 27.516 37.5833C27.641 37.6722 27.7248 37.6358 27.7577 37.4867C27.765 37.4536 27.764 37.4182 27.767 37.3832C27.8614 36.5357 27.9559 35.6891 28.0479 34.8406C28.0557 34.7663 28.0494 34.6906 28.0494 34.556ZM15.3959 29.6632C15.3959 29.8055 15.3881 29.8803 15.3973 29.9527C15.4705 30.586 15.549 31.2174 15.6216 31.8503C15.6502 32.0892 15.6638 32.3301 15.6958 32.5681C15.7045 32.6284 15.7447 32.6997 15.7922 32.7299C15.8203 32.7478 15.9012 32.7056 15.9443 32.6716C16.4496 32.2864 16.953 31.8964 17.4573 31.5093C17.6579 31.3549 17.654 31.3024 17.4491 31.1494C16.8406 30.6987 16.2374 30.2432 15.6313 29.7915C15.5805 29.7536 15.5189 29.7293 15.3959 29.6632Z"/>
</mask>
<path fill-rule="evenodd" clip-rule="evenodd" d="M5.00339 20.275C5.00339 16.9582 5.00339 13.6415 5.00339 10.3242C5.00339 10.281 5.00727 10.2368 5.00291 10.1941C4.98256 9.96192 5.08382 9.79533 5.27664 9.6773C5.45299 9.569 5.62691 9.45535 5.8052 9.35141C7.70434 8.2455 9.70183 7.36107 11.7899 6.68063C13.1266 6.24497 14.486 5.90207 15.8644 5.62572C17.6942 5.25951 19.5415 5.06524 21.4053 5.01084C22.9857 4.96616 24.5578 5.06135 26.1226 5.26388C27.7568 5.47564 29.3638 5.82048 30.948 6.28139C32.2488 6.65926 33.522 7.1158 34.7642 7.652C35.848 8.1202 36.8983 8.66076 37.9312 9.23193C38.158 9.35724 38.3823 9.48546 38.6085 9.60979C38.8692 9.75307 39.0005 9.94152 39 10.2698C38.9889 16.7406 38.9893 23.2104 38.9889 29.6802C38.9889 29.9313 38.9918 30.182 38.9879 30.4321C38.9826 30.7716 38.8363 30.9226 38.4961 30.9265C37.8925 30.9314 37.2898 30.9275 36.6871 30.9275C34.3515 30.9275 32.0158 30.9265 29.6811 30.9255C29.3803 30.9255 29.3604 30.9396 29.327 31.2393C29.2364 32.0543 29.1521 32.8702 29.0595 33.6852C28.9442 34.7149 28.8212 35.7435 28.7064 36.7732C28.6468 37.305 28.5964 37.8383 28.5416 38.3711C28.5353 38.4308 28.5315 38.4915 28.5218 38.5508C28.4578 38.935 28.141 39.0914 27.8188 38.8772C27.4671 38.6431 27.1333 38.3827 26.7936 38.1316C26.2612 37.7368 25.7312 37.3361 25.1978 36.9412C25.0369 36.8222 25.018 36.8213 24.8596 36.9422C24.2419 37.4109 23.6252 37.883 23.0084 38.3536C22.7962 38.5153 22.586 38.68 22.3694 38.8364C22.0642 39.0549 21.9285 39.0569 21.6248 38.8281C20.8128 38.2166 20.0037 37.5998 19.1946 36.9835C18.9757 36.8169 18.9795 36.8193 18.7572 36.9864C17.95 37.5921 17.1414 38.1943 16.3324 38.797C16.2781 38.8378 16.219 38.8747 16.158 38.9053C15.8406 39.0666 15.5495 38.9316 15.485 38.5775C15.4409 38.3405 15.424 38.0981 15.3978 37.8577C15.2796 36.7936 15.1619 35.7294 15.0451 34.6653C14.9206 33.5322 14.7985 32.3996 14.6759 31.266C14.6701 31.215 14.6672 31.1626 14.658 31.1125C14.6362 30.996 14.5698 30.928 14.4463 30.9275C14.3949 30.9275 14.3426 30.9265 14.2918 30.9265C11.508 30.9265 8.72513 30.9265 5.94182 30.9265C5.82119 30.9265 5.70007 30.9304 5.57992 30.9338C5.15649 30.9421 4.99952 30.7361 5 30.3568C5.00727 26.9963 5.00339 23.6364 5.00339 20.275ZM21.9717 20.1938C25.2801 20.1938 28.5891 20.1938 31.8986 20.1938C32.0885 20.1938 32.2774 20.1938 32.4673 20.1992C32.8719 20.2108 33.2071 20.3939 33.461 20.6858C34.2807 21.6256 33.8413 22.8913 32.8501 23.2707C32.6103 23.3625 32.3637 23.3799 32.1132 23.3799C31.5711 23.3799 31.028 23.376 30.4858 23.3736C30.2378 23.3727 30.1879 23.4154 30.1481 23.6636C30.1414 23.7058 30.137 23.7486 30.1326 23.7923C30.0488 24.5733 29.9665 25.3547 29.8827 26.1367C29.7533 27.3388 29.6215 28.5403 29.4941 29.7429C29.4636 30.027 29.4994 30.0639 29.778 30.0639C32.4494 30.063 35.1208 30.0615 37.7917 30.0605C37.8431 30.06 37.8954 30.0581 37.9463 30.0571C38.0722 30.0532 38.1347 29.9833 38.141 29.8614C38.1444 29.8007 38.143 29.7405 38.143 29.6798C38.1425 23.3824 38.1396 17.0845 38.1478 10.7871C38.1483 10.468 38.0538 10.2747 37.768 10.1334C37.2191 9.86186 36.6871 9.55831 36.1431 9.27856C34.9619 8.66999 33.7444 8.13817 32.4959 7.68988C31.2794 7.25325 30.0387 6.89579 28.7732 6.61749C27.374 6.30859 25.9637 6.08906 24.5365 5.97347C21.1994 5.70391 17.9088 5.99144 14.6571 6.75979C13.4066 7.0546 12.1775 7.42907 10.975 7.88075C9.94989 8.26542 8.94121 8.68893 7.96499 9.18482C7.35843 9.49274 6.76737 9.83224 6.16468 10.1499C5.93262 10.2718 5.82119 10.4335 5.84783 10.7084C5.87351 10.9644 5.85607 11.2257 5.85607 11.485C5.85607 17.558 5.85607 23.6301 5.85607 29.7045C5.85607 29.7652 5.85558 29.8255 5.86043 29.8852C5.86867 29.9979 5.9331 30.0562 6.04501 30.061C6.09588 30.063 6.14772 30.063 6.19956 30.063C8.84528 30.0639 11.49 30.0654 14.1362 30.0664C14.2055 30.0664 14.2733 30.0683 14.3421 30.0649C14.4439 30.0605 14.503 30.0037 14.5093 29.9032C14.5132 29.8342 14.5093 29.7647 14.5015 29.6968C14.4022 28.7778 14.3 27.8594 14.2002 26.9415C14.0829 25.8594 13.9681 24.7773 13.848 23.6951C13.816 23.4062 13.7772 23.377 13.4895 23.377C12.9376 23.377 12.3873 23.3746 11.8359 23.3824C11.3248 23.3897 10.8961 23.2226 10.5371 22.8515C9.9339 22.2284 9.9838 21.1468 10.6432 20.5795C10.9692 20.2983 11.336 20.19 11.7604 20.1909C15.1648 20.1958 18.5682 20.1938 21.9717 20.1938ZM21.9983 22.4989C25.3058 22.4989 28.6138 22.4999 31.9208 22.4989C32.0759 22.4989 32.2324 22.5062 32.385 22.4877C32.68 22.4537 32.8719 22.2697 32.9717 22.0045C33.1412 21.5572 32.7934 21.0622 32.2953 21.0375C32.0289 21.0244 31.7615 21.0346 31.495 21.0346C25.1803 21.0346 18.8667 21.0346 12.5525 21.0346C12.2686 21.0346 11.9837 21.0321 11.6993 21.0365C11.2924 21.0438 10.8026 21.4926 11.0448 22.0521C11.1679 22.3377 11.3897 22.478 11.6872 22.497C11.9014 22.511 12.1179 22.4994 12.3335 22.4994C15.5548 22.4989 18.7765 22.4989 21.9983 22.4989ZM24.9405 25.8467C24.8785 25.7792 24.8339 25.7166 24.7758 25.6724C23.9173 25.0225 23.0574 24.3751 22.1974 23.7262C22.0182 23.5912 21.9944 23.5941 21.8176 23.7282C21.4465 24.0094 21.0744 24.2867 20.7033 24.5679C20.182 24.9638 19.6583 25.3567 19.1394 25.7569C18.95 25.9031 18.9568 25.9638 19.1491 26.1071C19.9902 26.7375 20.8307 27.3689 21.6713 27.9988C21.8912 28.1644 21.9174 28.16 22.1412 27.9915C22.7047 27.5665 23.272 27.145 23.8369 26.721C24.161 26.4781 24.4837 26.2338 24.8054 25.9871C24.8494 25.9531 24.8848 25.906 24.9405 25.8467ZM25.7336 26.4155C25.6687 26.4504 25.6135 26.4733 25.566 26.5082C24.6712 27.1814 23.7768 27.8555 22.882 28.5306C22.6645 28.6943 22.6669 28.7506 22.882 28.9104C23.6814 29.5078 24.4827 30.1072 25.2801 30.7075C25.4909 30.8653 25.4894 30.8697 25.6992 30.7123C26.6028 30.0362 27.5063 29.3607 28.4094 28.6836C28.561 28.5695 28.5615 28.4961 28.4157 28.3883C27.5795 27.7657 26.7433 27.143 25.9071 26.5218C25.8533 26.482 25.7932 26.4519 25.7336 26.4155ZM21.1379 28.704C21.0642 28.6414 21.0046 28.5841 20.9373 28.534C20.0977 27.9055 19.2538 27.2795 18.4156 26.6476C18.1908 26.4786 18.1685 26.4762 17.952 26.6394C17.1831 27.2202 16.4118 27.7992 15.6396 28.3752C15.4453 28.5204 15.4419 28.5632 15.6391 28.7094C16.5 29.3534 17.3619 29.9979 18.2218 30.6434C18.3967 30.7735 18.4432 30.7725 18.6283 30.6332C18.9442 30.3952 19.2605 30.1582 19.5774 29.9207C20.0575 29.5583 20.5391 29.197 21.0201 28.8337C21.0579 28.8046 21.086 28.7618 21.1379 28.704ZM21.9072 29.2791C21.8423 29.3208 21.7754 29.3577 21.7154 29.4039C21.3995 29.6433 21.0875 29.8876 20.7721 30.1256C20.3177 30.4675 19.8584 30.8036 19.4073 31.1485C19.2131 31.2971 19.2155 31.3646 19.3981 31.503C20.2212 32.1276 21.0478 32.7483 21.8699 33.3744C21.9775 33.4564 22.0555 33.455 22.164 33.3705C22.8534 32.8401 23.5486 32.318 24.2419 31.793C24.365 31.6987 24.4904 31.6074 24.6111 31.5098C24.6978 31.4404 24.6905 31.3631 24.6111 31.2917C24.5796 31.2631 24.5403 31.2412 24.5064 31.216C23.6877 30.6001 22.8684 29.9843 22.0492 29.3689C22.0085 29.3388 21.9639 29.315 21.9072 29.2791ZM21.2125 34.0111C21.1437 33.9455 21.0952 33.8887 21.0366 33.8445C20.2256 33.2306 19.4141 32.6186 18.6012 32.0076C18.4466 31.8911 18.4108 31.8911 18.2601 32.0038C17.64 32.47 17.0208 32.9368 16.4031 33.4054C16.2301 33.5366 16.2263 33.6172 16.3929 33.7488C16.609 33.9198 16.8353 34.0781 17.0547 34.2447C17.6371 34.6901 18.2184 35.134 18.7979 35.5833C18.9713 35.7183 18.9897 35.7265 19.1743 35.5881C19.3947 35.4215 19.6118 35.253 19.8327 35.0879C20.2397 34.7833 20.65 34.4812 21.0555 34.1753C21.1088 34.1369 21.148 34.0801 21.2125 34.0111ZM25.0253 35.7057C25.0815 35.6692 25.1338 35.6406 25.1813 35.6041C25.9477 35.0184 26.7137 34.4302 27.4801 33.8445C27.6875 33.6857 27.6851 33.6114 27.4768 33.4545C26.8775 33.0052 26.2786 32.5536 25.6803 32.1014C25.4919 31.9591 25.4768 31.9591 25.2797 32.1087C24.8882 32.4054 24.4967 32.7022 24.1043 32.998C23.7187 33.2879 23.3287 33.5735 22.9459 33.8678C22.7938 33.9839 22.7982 34.0553 22.9474 34.1689C23.5869 34.6522 24.2269 35.1345 24.8679 35.6158C24.9148 35.6498 24.9696 35.6746 25.0253 35.7057ZM24.2627 36.2836C24.1964 36.2122 24.1668 36.17 24.1276 36.1394C23.4735 35.6459 22.8171 35.1578 22.1669 34.6605C22.0453 34.5672 21.9508 34.5866 21.8433 34.6687C21.1975 35.1578 20.5502 35.6445 19.9049 36.134C19.7474 36.2535 19.7479 36.3103 19.9025 36.4279C20.5483 36.9189 21.1936 37.4075 21.8394 37.8966C21.992 38.0122 22.0235 38.0083 22.1751 37.8917C22.7895 37.4172 23.4052 36.9461 24.0205 36.4721C24.0932 36.4172 24.1654 36.3599 24.2627 36.2836ZM15.6619 23.4304C15.7428 23.5145 15.7873 23.5747 15.845 23.6179C16.5039 24.1153 17.1666 24.6097 17.8265 25.107C18.1637 25.362 18.1676 25.3717 18.514 25.1182C19.2077 24.6077 19.8962 24.0895 20.5836 23.5728C20.6238 23.5422 20.6456 23.4853 20.6791 23.4368C20.6355 23.4105 20.6146 23.3862 20.5933 23.3862C19.0013 23.3819 17.4094 23.378 15.8174 23.3775C15.7864 23.377 15.7558 23.3974 15.6619 23.4304ZM29.2373 23.7913C29.139 23.8375 29.0968 23.8501 29.0653 23.8734C28.6187 24.209 28.1734 24.5461 27.7267 24.8836C27.3707 25.1532 27.0131 25.4227 26.6585 25.6952C26.5344 25.7909 26.5218 25.8598 26.6061 25.9478C26.6299 25.9715 26.6604 25.9895 26.688 26.0104C27.3382 26.5034 27.9893 26.9978 28.6405 27.4903C28.7626 27.5835 28.8454 27.5525 28.8779 27.4048C28.8866 27.363 28.8846 27.3184 28.889 27.2751C28.9457 26.7355 29.0009 26.1955 29.0595 25.6559C29.1172 25.126 29.1787 24.5946 29.2364 24.0648C29.2451 23.9924 29.2373 23.9176 29.2373 23.7913ZM23.3606 23.4062C23.3548 23.4266 23.3481 23.447 23.3418 23.4678C23.3999 23.5227 23.4537 23.5839 23.5176 23.632C24.191 24.1391 24.8659 24.6442 25.5403 25.1507C25.7079 25.277 25.7394 25.2824 25.8998 25.1619C26.596 24.6417 27.2897 24.1191 27.9825 23.5951C28.0329 23.5577 28.0693 23.5018 28.1526 23.4091C28.0228 23.393 27.9511 23.378 27.8794 23.378C26.4526 23.3756 25.0243 23.3741 23.5976 23.3746C23.5181 23.3751 23.4401 23.3955 23.3606 23.4062ZM17.4229 25.9108C17.3226 25.8283 17.2577 25.7729 17.1904 25.7209C16.9917 25.5694 16.7912 25.4213 16.593 25.2707C16.0722 24.8754 15.5519 24.4795 15.0301 24.0851C14.9637 24.0351 14.8993 23.9632 14.783 24.0351C14.783 24.1167 14.7748 24.2095 14.785 24.3008C14.8673 25.0546 14.9535 25.8088 15.0374 26.5621C15.0679 26.8366 15.0877 27.1119 15.1241 27.3854C15.1473 27.567 15.2263 27.602 15.36 27.5015C15.9937 27.0269 16.6264 26.5515 17.2577 26.0745C17.3096 26.0357 17.3512 25.9832 17.4229 25.9108ZM28.6128 29.7395C28.5915 29.7293 28.5697 29.7186 28.5489 29.7084C28.4908 29.7405 28.4283 29.7662 28.375 29.8055C27.8832 30.1684 27.3925 30.5341 26.9017 30.8993C26.7355 31.0227 26.5688 31.1456 26.407 31.2738C26.2975 31.3607 26.2912 31.4253 26.3692 31.5103C26.3988 31.5414 26.4366 31.5642 26.471 31.5904C27.0087 32.0076 27.5465 32.4239 28.0862 32.8382C28.1201 32.8649 28.1773 32.8605 28.2597 32.8785C28.3788 31.8177 28.4956 30.7789 28.6128 29.7395ZM18.2155 36.2836C18.1569 36.2142 18.1336 36.1758 18.1017 36.151C17.4593 35.6576 16.8178 35.1627 16.1739 34.6721C16.1182 34.6299 16.048 34.6075 15.9613 34.5638C15.9496 34.6537 15.9327 34.7032 15.9375 34.7513C16.0339 35.6527 16.1313 36.5532 16.2326 37.4541C16.2568 37.6717 16.3425 37.7072 16.5165 37.5765C16.9515 37.2511 17.3861 36.9267 17.8187 36.5993C17.9462 36.5022 18.0682 36.3997 18.2155 36.2836ZM28.0494 34.556C27.937 34.6143 27.8735 34.6362 27.8222 34.6745C27.1928 35.1539 26.564 35.6347 25.9371 36.1165C25.7879 36.2312 25.7922 36.3035 25.9434 36.4148C26.3242 36.695 26.705 36.9752 27.0853 37.256C27.2302 37.3633 27.3697 37.4784 27.516 37.5833C27.641 37.6722 27.7248 37.6358 27.7577 37.4867C27.765 37.4536 27.764 37.4182 27.767 37.3832C27.8614 36.5357 27.9559 35.6891 28.0479 34.8406C28.0557 34.7663 28.0494 34.6906 28.0494 34.556ZM15.3959 29.6632C15.3959 29.8055 15.3881 29.8803 15.3973 29.9527C15.4705 30.586 15.549 31.2174 15.6216 31.8503C15.6502 32.0892 15.6638 32.3301 15.6958 32.5681C15.7045 32.6284 15.7447 32.6997 15.7922 32.7299C15.8203 32.7478 15.9012 32.7056 15.9443 32.6716C16.4496 32.2864 16.953 31.8964 17.4573 31.5093C17.6579 31.3549 17.654 31.3024 17.4491 31.1494C16.8406 30.6987 16.2374 30.2432 15.6313 29.7915C15.5805 29.7536 15.5189 29.7293 15.3959 29.6632Z" fill="#EDC268"/>
<path fill-rule="evenodd" clip-rule="evenodd" d="M5.00339 20.275C5.00339 16.9582 5.00339 13.6415 5.00339 10.3242C5.00339 10.281 5.00727 10.2368 5.00291 10.1941C4.98256 9.96192 5.08382 9.79533 5.27664 9.6773C5.45299 9.569 5.62691 9.45535 5.8052 9.35141C7.70434 8.2455 9.70183 7.36107 11.7899 6.68063C13.1266 6.24497 14.486 5.90207 15.8644 5.62572C17.6942 5.25951 19.5415 5.06524 21.4053 5.01084C22.9857 4.96616 24.5578 5.06135 26.1226 5.26388C27.7568 5.47564 29.3638 5.82048 30.948 6.28139C32.2488 6.65926 33.522 7.1158 34.7642 7.652C35.848 8.1202 36.8983 8.66076 37.9312 9.23193C38.158 9.35724 38.3823 9.48546 38.6085 9.60979C38.8692 9.75307 39.0005 9.94152 39 10.2698C38.9889 16.7406 38.9893 23.2104 38.9889 29.6802C38.9889 29.9313 38.9918 30.182 38.9879 30.4321C38.9826 30.7716 38.8363 30.9226 38.4961 30.9265C37.8925 30.9314 37.2898 30.9275 36.6871 30.9275C34.3515 30.9275 32.0158 30.9265 29.6811 30.9255C29.3803 30.9255 29.3604 30.9396 29.327 31.2393C29.2364 32.0543 29.1521 32.8702 29.0595 33.6852C28.9442 34.7149 28.8212 35.7435 28.7064 36.7732C28.6468 37.305 28.5964 37.8383 28.5416 38.3711C28.5353 38.4308 28.5315 38.4915 28.5218 38.5508C28.4578 38.935 28.141 39.0914 27.8188 38.8772C27.4671 38.6431 27.1333 38.3827 26.7936 38.1316C26.2612 37.7368 25.7312 37.3361 25.1978 36.9412C25.0369 36.8222 25.018 36.8213 24.8596 36.9422C24.2419 37.4109 23.6252 37.883 23.0084 38.3536C22.7962 38.5153 22.586 38.68 22.3694 38.8364C22.0642 39.0549 21.9285 39.0569 21.6248 38.8281C20.8128 38.2166 20.0037 37.5998 19.1946 36.9835C18.9757 36.8169 18.9795 36.8193 18.7572 36.9864C17.95 37.5921 17.1414 38.1943 16.3324 38.797C16.2781 38.8378 16.219 38.8747 16.158 38.9053C15.8406 39.0666 15.5495 38.9316 15.485 38.5775C15.4409 38.3405 15.424 38.0981 15.3978 37.8577C15.2796 36.7936 15.1619 35.7294 15.0451 34.6653C14.9206 33.5322 14.7985 32.3996 14.6759 31.266C14.6701 31.215 14.6672 31.1626 14.658 31.1125C14.6362 30.996 14.5698 30.928 14.4463 30.9275C14.3949 30.9275 14.3426 30.9265 14.2918 30.9265C11.508 30.9265 8.72513 30.9265 5.94182 30.9265C5.82119 30.9265 5.70007 30.9304 5.57992 30.9338C5.15649 30.9421 4.99952 30.7361 5 30.3568C5.00727 26.9963 5.00339 23.6364 5.00339 20.275ZM21.9717 20.1938C25.2801 20.1938 28.5891 20.1938 31.8986 20.1938C32.0885 20.1938 32.2774 20.1938 32.4673 20.1992C32.8719 20.2108 33.2071 20.3939 33.461 20.6858C34.2807 21.6256 33.8413 22.8913 32.8501 23.2707C32.6103 23.3625 32.3637 23.3799 32.1132 23.3799C31.5711 23.3799 31.028 23.376 30.4858 23.3736C30.2378 23.3727 30.1879 23.4154 30.1481 23.6636C30.1414 23.7058 30.137 23.7486 30.1326 23.7923C30.0488 24.5733 29.9665 25.3547 29.8827 26.1367C29.7533 27.3388 29.6215 28.5403 29.4941 29.7429C29.4636 30.027 29.4994 30.0639 29.778 30.0639C32.4494 30.063 35.1208 30.0615 37.7917 30.0605C37.8431 30.06 37.8954 30.0581 37.9463 30.0571C38.0722 30.0532 38.1347 29.9833 38.141 29.8614C38.1444 29.8007 38.143 29.7405 38.143 29.6798C38.1425 23.3824 38.1396 17.0845 38.1478 10.7871C38.1483 10.468 38.0538 10.2747 37.768 10.1334C37.2191 9.86186 36.6871 9.55831 36.1431 9.27856C34.9619 8.66999 33.7444 8.13817 32.4959 7.68988C31.2794 7.25325 30.0387 6.89579 28.7732 6.61749C27.374 6.30859 25.9637 6.08906 24.5365 5.97347C21.1994 5.70391 17.9088 5.99144 14.6571 6.75979C13.4066 7.0546 12.1775 7.42907 10.975 7.88075C9.94989 8.26542 8.94121 8.68893 7.96499 9.18482C7.35843 9.49274 6.76737 9.83224 6.16468 10.1499C5.93262 10.2718 5.82119 10.4335 5.84783 10.7084C5.87351 10.9644 5.85607 11.2257 5.85607 11.485C5.85607 17.558 5.85607 23.6301 5.85607 29.7045C5.85607 29.7652 5.85558 29.8255 5.86043 29.8852C5.86867 29.9979 5.9331 30.0562 6.04501 30.061C6.09588 30.063 6.14772 30.063 6.19956 30.063C8.84528 30.0639 11.49 30.0654 14.1362 30.0664C14.2055 30.0664 14.2733 30.0683 14.3421 30.0649C14.4439 30.0605 14.503 30.0037 14.5093 29.9032C14.5132 29.8342 14.5093 29.7647 14.5015 29.6968C14.4022 28.7778 14.3 27.8594 14.2002 26.9415C14.0829 25.8594 13.9681 24.7773 13.848 23.6951C13.816 23.4062 13.7772 23.377 13.4895 23.377C12.9376 23.377 12.3873 23.3746 11.8359 23.3824C11.3248 23.3897 10.8961 23.2226 10.5371 22.8515C9.9339 22.2284 9.9838 21.1468 10.6432 20.5795C10.9692 20.2983 11.336 20.19 11.7604 20.1909C15.1648 20.1958 18.5682 20.1938 21.9717 20.1938ZM21.9983 22.4989C25.3058 22.4989 28.6138 22.4999 31.9208 22.4989C32.0759 22.4989 32.2324 22.5062 32.385 22.4877C32.68 22.4537 32.8719 22.2697 32.9717 22.0045C33.1412 21.5572 32.7934 21.0622 32.2953 21.0375C32.0289 21.0244 31.7615 21.0346 31.495 21.0346C25.1803 21.0346 18.8667 21.0346 12.5525 21.0346C12.2686 21.0346 11.9837 21.0321 11.6993 21.0365C11.2924 21.0438 10.8026 21.4926 11.0448 22.0521C11.1679 22.3377 11.3897 22.478 11.6872 22.497C11.9014 22.511 12.1179 22.4994 12.3335 22.4994C15.5548 22.4989 18.7765 22.4989 21.9983 22.4989ZM24.9405 25.8467C24.8785 25.7792 24.8339 25.7166 24.7758 25.6724C23.9173 25.0225 23.0574 24.3751 22.1974 23.7262C22.0182 23.5912 21.9944 23.5941 21.8176 23.7282C21.4465 24.0094 21.0744 24.2867 20.7033 24.5679C20.182 24.9638 19.6583 25.3567 19.1394 25.7569C18.95 25.9031 18.9568 25.9638 19.1491 26.1071C19.9902 26.7375 20.8307 27.3689 21.6713 27.9988C21.8912 28.1644 21.9174 28.16 22.1412 27.9915C22.7047 27.5665 23.272 27.145 23.8369 26.721C24.161 26.4781 24.4837 26.2338 24.8054 25.9871C24.8494 25.9531 24.8848 25.906 24.9405 25.8467ZM25.7336 26.4155C25.6687 26.4504 25.6135 26.4733 25.566 26.5082C24.6712 27.1814 23.7768 27.8555 22.882 28.5306C22.6645 28.6943 22.6669 28.7506 22.882 28.9104C23.6814 29.5078 24.4827 30.1072 25.2801 30.7075C25.4909 30.8653 25.4894 30.8697 25.6992 30.7123C26.6028 30.0362 27.5063 29.3607 28.4094 28.6836C28.561 28.5695 28.5615 28.4961 28.4157 28.3883C27.5795 27.7657 26.7433 27.143 25.9071 26.5218C25.8533 26.482 25.7932 26.4519 25.7336 26.4155ZM21.1379 28.704C21.0642 28.6414 21.0046 28.5841 20.9373 28.534C20.0977 27.9055 19.2538 27.2795 18.4156 26.6476C18.1908 26.4786 18.1685 26.4762 17.952 26.6394C17.1831 27.2202 16.4118 27.7992 15.6396 28.3752C15.4453 28.5204 15.4419 28.5632 15.6391 28.7094C16.5 29.3534 17.3619 29.9979 18.2218 30.6434C18.3967 30.7735 18.4432 30.7725 18.6283 30.6332C18.9442 30.3952 19.2605 30.1582 19.5774 29.9207C20.0575 29.5583 20.5391 29.197 21.0201 28.8337C21.0579 28.8046 21.086 28.7618 21.1379 28.704ZM21.9072 29.2791C21.8423 29.3208 21.7754 29.3577 21.7154 29.4039C21.3995 29.6433 21.0875 29.8876 20.7721 30.1256C20.3177 30.4675 19.8584 30.8036 19.4073 31.1485C19.2131 31.2971 19.2155 31.3646 19.3981 31.503C20.2212 32.1276 21.0478 32.7483 21.8699 33.3744C21.9775 33.4564 22.0555 33.455 22.164 33.3705C22.8534 32.8401 23.5486 32.318 24.2419 31.793C24.365 31.6987 24.4904 31.6074 24.6111 31.5098C24.6978 31.4404 24.6905 31.3631 24.6111 31.2917C24.5796 31.2631 24.5403 31.2412 24.5064 31.216C23.6877 30.6001 22.8684 29.9843 22.0492 29.3689C22.0085 29.3388 21.9639 29.315 21.9072 29.2791ZM21.2125 34.0111C21.1437 33.9455 21.0952 33.8887 21.0366 33.8445C20.2256 33.2306 19.4141 32.6186 18.6012 32.0076C18.4466 31.8911 18.4108 31.8911 18.2601 32.0038C17.64 32.47 17.0208 32.9368 16.4031 33.4054C16.2301 33.5366 16.2263 33.6172 16.3929 33.7488C16.609 33.9198 16.8353 34.0781 17.0547 34.2447C17.6371 34.6901 18.2184 35.134 18.7979 35.5833C18.9713 35.7183 18.9897 35.7265 19.1743 35.5881C19.3947 35.4215 19.6118 35.253 19.8327 35.0879C20.2397 34.7833 20.65 34.4812 21.0555 34.1753C21.1088 34.1369 21.148 34.0801 21.2125 34.0111ZM25.0253 35.7057C25.0815 35.6692 25.1338 35.6406 25.1813 35.6041C25.9477 35.0184 26.7137 34.4302 27.4801 33.8445C27.6875 33.6857 27.6851 33.6114 27.4768 33.4545C26.8775 33.0052 26.2786 32.5536 25.6803 32.1014C25.4919 31.9591 25.4768 31.9591 25.2797 32.1087C24.8882 32.4054 24.4967 32.7022 24.1043 32.998C23.7187 33.2879 23.3287 33.5735 22.9459 33.8678C22.7938 33.9839 22.7982 34.0553 22.9474 34.1689C23.5869 34.6522 24.2269 35.1345 24.8679 35.6158C24.9148 35.6498 24.9696 35.6746 25.0253 35.7057ZM24.2627 36.2836C24.1964 36.2122 24.1668 36.17 24.1276 36.1394C23.4735 35.6459 22.8171 35.1578 22.1669 34.6605C22.0453 34.5672 21.9508 34.5866 21.8433 34.6687C21.1975 35.1578 20.5502 35.6445 19.9049 36.134C19.7474 36.2535 19.7479 36.3103 19.9025 36.4279C20.5483 36.9189 21.1936 37.4075 21.8394 37.8966C21.992 38.0122 22.0235 38.0083 22.1751 37.8917C22.7895 37.4172 23.4052 36.9461 24.0205 36.4721C24.0932 36.4172 24.1654 36.3599 24.2627 36.2836ZM15.6619 23.4304C15.7428 23.5145 15.7873 23.5747 15.845 23.6179C16.5039 24.1153 17.1666 24.6097 17.8265 25.107C18.1637 25.362 18.1676 25.3717 18.514 25.1182C19.2077 24.6077 19.8962 24.0895 20.5836 23.5728C20.6238 23.5422 20.6456 23.4853 20.6791 23.4368C20.6355 23.4105 20.6146 23.3862 20.5933 23.3862C19.0013 23.3819 17.4094 23.378 15.8174 23.3775C15.7864 23.377 15.7558 23.3974 15.6619 23.4304ZM29.2373 23.7913C29.139 23.8375 29.0968 23.8501 29.0653 23.8734C28.6187 24.209 28.1734 24.5461 27.7267 24.8836C27.3707 25.1532 27.0131 25.4227 26.6585 25.6952C26.5344 25.7909 26.5218 25.8598 26.6061 25.9478C26.6299 25.9715 26.6604 25.9895 26.688 26.0104C27.3382 26.5034 27.9893 26.9978 28.6405 27.4903C28.7626 27.5835 28.8454 27.5525 28.8779 27.4048C28.8866 27.363 28.8846 27.3184 28.889 27.2751C28.9457 26.7355 29.0009 26.1955 29.0595 25.6559C29.1172 25.126 29.1787 24.5946 29.2364 24.0648C29.2451 23.9924 29.2373 23.9176 29.2373 23.7913ZM23.3606 23.4062C23.3548 23.4266 23.3481 23.447 23.3418 23.4678C23.3999 23.5227 23.4537 23.5839 23.5176 23.632C24.191 24.1391 24.8659 24.6442 25.5403 25.1507C25.7079 25.277 25.7394 25.2824 25.8998 25.1619C26.596 24.6417 27.2897 24.1191 27.9825 23.5951C28.0329 23.5577 28.0693 23.5018 28.1526 23.4091C28.0228 23.393 27.9511 23.378 27.8794 23.378C26.4526 23.3756 25.0243 23.3741 23.5976 23.3746C23.5181 23.3751 23.4401 23.3955 23.3606 23.4062ZM17.4229 25.9108C17.3226 25.8283 17.2577 25.7729 17.1904 25.7209C16.9917 25.5694 16.7912 25.4213 16.593 25.2707C16.0722 24.8754 15.5519 24.4795 15.0301 24.0851C14.9637 24.0351 14.8993 23.9632 14.783 24.0351C14.783 24.1167 14.7748 24.2095 14.785 24.3008C14.8673 25.0546 14.9535 25.8088 15.0374 26.5621C15.0679 26.8366 15.0877 27.1119 15.1241 27.3854C15.1473 27.567 15.2263 27.602 15.36 27.5015C15.9937 27.0269 16.6264 26.5515 17.2577 26.0745C17.3096 26.0357 17.3512 25.9832 17.4229 25.9108ZM28.6128 29.7395C28.5915 29.7293 28.5697 29.7186 28.5489 29.7084C28.4908 29.7405 28.4283 29.7662 28.375 29.8055C27.8832 30.1684 27.3925 30.5341 26.9017 30.8993C26.7355 31.0227 26.5688 31.1456 26.407 31.2738C26.2975 31.3607 26.2912 31.4253 26.3692 31.5103C26.3988 31.5414 26.4366 31.5642 26.471 31.5904C27.0087 32.0076 27.5465 32.4239 28.0862 32.8382C28.1201 32.8649 28.1773 32.8605 28.2597 32.8785C28.3788 31.8177 28.4956 30.7789 28.6128 29.7395ZM18.2155 36.2836C18.1569 36.2142 18.1336 36.1758 18.1017 36.151C17.4593 35.6576 16.8178 35.1627 16.1739 34.6721C16.1182 34.6299 16.048 34.6075 15.9613 34.5638C15.9496 34.6537 15.9327 34.7032 15.9375 34.7513C16.0339 35.6527 16.1313 36.5532 16.2326 37.4541C16.2568 37.6717 16.3425 37.7072 16.5165 37.5765C16.9515 37.2511 17.3861 36.9267 17.8187 36.5993C17.9462 36.5022 18.0682 36.3997 18.2155 36.2836ZM28.0494 34.556C27.937 34.6143 27.8735 34.6362 27.8222 34.6745C27.1928 35.1539 26.564 35.6347 25.9371 36.1165C25.7879 36.2312 25.7922 36.3035 25.9434 36.4148C26.3242 36.695 26.705 36.9752 27.0853 37.256C27.2302 37.3633 27.3697 37.4784 27.516 37.5833C27.641 37.6722 27.7248 37.6358 27.7577 37.4867C27.765 37.4536 27.764 37.4182 27.767 37.3832C27.8614 36.5357 27.9559 35.6891 28.0479 34.8406C28.0557 34.7663 28.0494 34.6906 28.0494 34.556ZM15.3959 29.6632C15.3959 29.8055 15.3881 29.8803 15.3973 29.9527C15.4705 30.586 15.549 31.2174 15.6216 31.8503C15.6502 32.0892 15.6638 32.3301 15.6958 32.5681C15.7045 32.6284 15.7447 32.6997 15.7922 32.7299C15.8203 32.7478 15.9012 32.7056 15.9443 32.6716C16.4496 32.2864 16.953 31.8964 17.4573 31.5093C17.6579 31.3549 17.654 31.3024 17.4491 31.1494C16.8406 30.6987 16.2374 30.2432 15.6313 29.7915C15.5805 29.7536 15.5189 29.7293 15.3959 29.6632Z" stroke="#EDC268" stroke-width="0.4" mask="url(#path-1-outside-1)"/>
</g>
<defs>
<filter id="filter0_d" x="0.799988" y="0.800049" width="42.4" height="42.4" filterUnits="userSpaceOnUse" color-interpolation-filters="sRGB">
<feFlood flood-opacity="0" result="BackgroundImageFix"/>
<feColorMatrix in="SourceAlpha" type="matrix" values="0 0 0 0 0 0 0 0 0 0 0 0 0 0 0 0 0 0 127 0"/>
<feOffset/>
<feGaussianBlur stdDeviation="2"/>
<feColorMatrix type="matrix" values="0 0 0 0 0.929412 0 0 0 0 0.760784 0 0 0 0 0.407843 0 0 0 1 0"/>
<feBlend mode="normal" in2="BackgroundImageFix" result="effect1_dropShadow"/>
<feBlend mode="normal" in="SourceGraphic" in2="effect1_dropShadow" result="shape"/>
</filter>
</defs>
</svg>
