<svg width="31" height="32" viewBox="0 0 31 32" fill="none" xmlns="http://www.w3.org/2000/svg">
<path d="M22.336 4.98781C22.2152 5.10861 22.0514 5.17647 21.8805 5.17647C21.7097 5.17647 21.5459 5.10861 21.4251 4.98781L19.1296 2.6923L1.82211 19.9998L4.11763 22.2953C4.23842 22.4161 4.30629 22.5799 4.30629 22.7507C4.30629 22.9216 4.23842 23.0854 4.11763 23.2062C3.99683 23.327 3.833 23.3948 3.66217 23.3948C3.49134 23.3948 3.3275 23.327 3.20671 23.2062L0.455734 20.4552C0.334939 20.3344 0.267077 20.1706 0.267077 19.9998C0.267077 19.8289 0.334939 19.6651 0.455734 19.5443L18.6741 1.32592C18.7949 1.20512 18.9587 1.13726 19.1296 1.13726C19.3004 1.13726 19.4642 1.20512 19.585 1.32592L22.336 4.07689C22.4568 4.19769 22.5247 4.36152 22.5247 4.53235C22.5247 4.70318 22.4568 4.86702 22.336 4.98781Z" fill="#EDC268"/>
<path d="M29.9875 12.6399L11.7691 30.8583C11.6483 30.9791 11.4845 31.0469 11.3136 31.0469C11.1428 31.0469 10.979 30.9791 10.8582 30.8583L8.10721 28.1073C7.98641 27.9865 7.91855 27.8227 7.91855 27.6519C7.91855 27.481 7.98641 27.3172 8.10721 27.1964C8.228 27.0756 8.39184 27.0077 8.56267 27.0077C8.7335 27.0077 8.89733 27.0756 9.01813 27.1964L11.3136 29.4919L28.6211 12.1845L26.3256 9.88894C26.2048 9.76814 26.1369 9.60431 26.1369 9.43348C26.1369 9.26265 26.2048 9.09881 26.3256 8.97802C26.4464 8.85722 26.6102 8.78936 26.781 8.78936C26.9519 8.78936 27.1157 8.85722 27.2365 8.97802L29.9875 11.729C30.1083 11.8498 30.1761 12.0136 30.1761 12.1845C30.1761 12.3553 30.1083 12.5191 29.9875 12.6399Z" fill="#EDC268"/>
<path d="M27.2367 9.88874C26.466 10.6594 25.4207 11.0924 24.3308 11.0924C23.2409 11.0924 22.1957 10.6594 21.425 9.88874C20.6543 9.11807 20.2214 8.07281 20.2214 6.98291C20.2214 5.89301 20.6543 4.84775 21.425 4.07708C21.5458 3.95628 21.7096 3.88842 21.8805 3.88842C22.0513 3.88842 22.2151 3.95628 22.3359 4.07708C22.4567 4.19787 22.5246 4.36171 22.5246 4.53254C22.5246 4.70337 22.4567 4.8672 22.3359 4.988C21.8068 5.51708 21.5096 6.23467 21.5096 6.98291C21.5096 7.73115 21.8068 8.44874 22.3359 8.97782C22.865 9.50691 23.5826 9.80414 24.3308 9.80414C25.0791 9.80414 25.7967 9.5069 26.3258 8.97782C26.4466 8.85703 26.6104 8.78916 26.7812 8.78916C26.952 8.78916 27.1159 8.85703 27.2367 8.97782C27.3575 9.09862 27.4253 9.26245 27.4253 9.43328C27.4253 9.60411 27.3575 9.76794 27.2367 9.88874Z" fill="#EDC268"/>
<path d="M27.2367 9.88874C26.466 10.6594 25.4207 11.0924 24.3308 11.0924C23.2409 11.0924 22.1957 10.6594 21.425 9.88874C20.6543 9.11807 20.2214 8.07281 20.2214 6.98291C20.2214 5.89301 20.6543 4.84775 21.425 4.07708C21.5458 3.95628 21.7096 3.88842 21.8805 3.88842C22.0513 3.88842 22.2151 3.95628 22.3359 4.07708C22.4567 4.19787 22.5246 4.36171 22.5246 4.53254C22.5246 4.70337 22.4567 4.8672 22.3359 4.988C21.8068 5.51708 21.5096 6.23467 21.5096 6.98291C21.5096 7.73115 21.8068 8.44874 22.3359 8.97782C22.865 9.50691 23.5826 9.80414 24.3308 9.80414C25.0791 9.80414 25.7967 9.5069 26.3258 8.97782C26.4466 8.85703 26.6104 8.78916 26.7812 8.78916C26.952 8.78916 27.1159 8.85703 27.2367 8.97782C27.3575 9.09862 27.4253 9.26245 27.4253 9.43328C27.4253 9.60411 27.3575 9.76794 27.2367 9.88874Z" fill="#EDC268"/>
<path d="M9.01816 28.1072C8.89736 28.228 8.73353 28.2958 8.5627 28.2958C8.39187 28.2958 8.22804 28.228 8.10724 28.1072C7.98644 27.9864 7.91858 27.8226 7.91858 27.6517C7.91858 27.4809 7.98644 27.3171 8.10724 27.1963C8.63632 26.6672 8.93356 25.9496 8.93356 25.2013C8.93356 24.4531 8.63632 23.7355 8.10724 23.2064C7.57816 22.6774 6.86057 22.3801 6.11233 22.3801C5.36409 22.3801 4.6465 22.6774 4.11742 23.2064C3.99662 23.3272 3.83279 23.3951 3.66196 23.3951C3.49113 23.3951 3.32729 23.3272 3.2065 23.2064C3.0857 23.0856 3.01784 22.9218 3.01784 22.751C3.01784 22.5801 3.0857 22.4163 3.2065 22.2955C3.97717 21.5248 5.02243 21.0919 6.11233 21.0919C7.20223 21.0919 8.24748 21.5248 9.01816 22.2955C9.78883 23.0662 10.2218 24.1114 10.2218 25.2013C10.2218 26.2912 9.78883 27.3365 9.01816 28.1072Z" fill="#EDC268"/>
<path d="M24.9775 17.6497C24.8567 17.7705 24.6929 17.8383 24.522 17.8383C24.3512 17.8383 24.1874 17.7705 24.0666 17.6497L13.6639 7.24696C13.5431 7.12617 13.4752 6.96233 13.4752 6.7915C13.4752 6.62067 13.5431 6.45684 13.6639 6.33604C13.7847 6.21525 13.9485 6.14739 14.1193 6.14739C14.2902 6.14739 14.454 6.21525 14.5748 6.33604L24.9775 16.7387C25.0983 16.8595 25.1661 17.0234 25.1661 17.1942C25.1661 17.365 25.0983 17.5289 24.9775 17.6497Z" fill="#EDC268"/>
</svg>
