<svg width="25" height="24" viewBox="0 0 25 24" fill="none" xmlns="http://www.w3.org/2000/svg">
<path d="M17.3364 3.9325L17.3364 4.0325C17.4904 4.0325 17.6382 3.9713 17.7471 3.86236C17.8561 3.75342 17.9173 3.60566 17.9173 3.4516C17.9173 3.29753 17.8561 3.14978 17.7471 3.04083L15.6932 0.986921C15.5843 0.87798 15.4365 0.816778 15.2825 0.816777C15.1284 0.816778 14.9806 0.877979 14.8717 0.986921L1.26962 14.589C1.16067 14.6979 1.09947 14.8457 1.09947 14.9998C1.09947 15.1538 1.16067 15.3016 1.26962 15.4105L3.32353 17.4644C3.43247 17.5734 3.58023 17.6346 3.73429 17.6346C3.88836 17.6346 4.03611 17.5734 4.14505 17.4644C4.254 17.3555 4.3152 17.2077 4.3152 17.0537C4.3152 16.8996 4.254 16.7518 4.14505 16.6429L2.5019 14.9998L15.2825 2.21921L16.9256 3.86236C17.0345 3.9713 17.1823 4.0325 17.3364 4.0325L17.3364 3.9325Z" fill="black" stroke="black" stroke-width="0.2"/>
<path d="M20.4142 7.11082L20.5142 7.11082L20.4142 7.11082C20.4142 7.26489 20.4754 7.41264 20.5844 7.52158L22.2275 9.16473L9.44695 21.9453L7.8038 20.3021C7.69486 20.1932 7.54711 20.132 7.39304 20.132C7.23897 20.132 7.09122 20.1932 6.98228 20.3021C6.87334 20.4111 6.81213 20.5588 6.81213 20.7129C6.81213 20.867 6.87334 21.0147 6.98228 21.1237L9.03619 23.1776C9.14513 23.2865 9.29289 23.3477 9.44695 23.3477C9.60102 23.3477 9.74877 23.2865 9.85772 23.1776L23.4598 9.57549C23.5687 9.46655 23.6299 9.3188 23.6299 9.16473C23.6299 9.01067 23.5687 8.86291 23.4598 8.75397L21.4059 6.70006C21.2969 6.59111 21.1492 6.52991 20.9951 6.52991C20.841 6.52991 20.6933 6.59111 20.5844 6.70006C20.4754 6.809 20.4142 6.95675 20.4142 7.11082Z" fill="black" stroke="black" stroke-width="0.2"/>
<path d="M19.1658 8.44943C20.006 8.44943 20.8119 8.11564 21.406 7.52149C21.5149 7.41255 21.5762 7.26479 21.5762 7.11073C21.5762 6.95666 21.5149 6.80891 21.406 6.69997C21.2971 6.59102 21.1493 6.52982 20.9952 6.52982C20.8412 6.52982 20.6934 6.59102 20.5845 6.69997C20.2082 7.07623 19.6979 7.28762 19.1658 7.28762C18.6336 7.28762 18.1233 7.07623 17.7471 6.69997C17.3708 6.3237 17.1594 5.81337 17.1594 5.28125C17.1594 4.74913 17.3708 4.2388 17.7471 3.86253C17.856 3.75359 17.9172 3.60584 17.9172 3.45177C17.9172 3.2977 17.856 3.14995 17.7471 3.04101C17.6381 2.93207 17.4904 2.87086 17.3363 2.87086C17.1822 2.87086 17.0345 2.93207 16.9255 3.04101C16.3314 3.63516 15.9976 4.441 15.9976 5.28125C15.9976 6.1215 16.3314 6.92734 16.9255 7.52149C17.5197 8.11564 18.3255 8.44943 19.1658 8.44943Z" fill="black" stroke="black" stroke-width="0.2"/>
<path d="M19.1658 8.44943C20.006 8.44943 20.8119 8.11564 21.406 7.52149C21.5149 7.41255 21.5762 7.26479 21.5762 7.11073C21.5762 6.95666 21.5149 6.80891 21.406 6.69997C21.2971 6.59102 21.1493 6.52982 20.9952 6.52982C20.8412 6.52982 20.6934 6.59102 20.5845 6.69997C20.2082 7.07623 19.6979 7.28762 19.1658 7.28762C18.6336 7.28762 18.1233 7.07623 17.7471 6.69997C17.3708 6.3237 17.1594 5.81337 17.1594 5.28125C17.1594 4.74913 17.3708 4.2388 17.7471 3.86253C17.856 3.75359 17.9172 3.60584 17.9172 3.45177C17.9172 3.2977 17.856 3.14995 17.7471 3.04101C17.6381 2.93207 17.4904 2.87086 17.3363 2.87086C17.1822 2.87086 17.0345 2.93207 16.9255 3.04101C16.3314 3.63516 15.9976 4.441 15.9976 5.28125C15.9976 6.1215 16.3314 6.92734 16.9255 7.52149C17.5197 8.11564 18.3255 8.44943 19.1658 8.44943Z" fill="black" stroke="black" stroke-width="0.2"/>
<path d="M7.39303 21.2938C7.5471 21.2938 7.69485 21.2326 7.80379 21.1237C8.39794 20.5295 8.73173 19.7237 8.73173 18.8834C8.73173 18.0432 8.39794 17.2373 7.80379 16.6432C7.20964 16.049 6.40381 15.7153 5.56355 15.7153C4.7233 15.7153 3.91746 16.049 3.32331 16.6432C3.21437 16.7521 3.15317 16.8999 3.15317 17.054C3.15317 17.208 3.21437 17.3558 3.32331 17.4647C3.43225 17.5737 3.58001 17.6349 3.73407 17.6349C3.88814 17.6349 4.0359 17.5737 4.14484 17.4647C4.5211 17.0885 5.03143 16.8771 5.56355 16.8771C6.09567 16.8771 6.606 17.0885 6.98227 17.4647C7.35854 17.841 7.56992 18.3513 7.56992 18.8834C7.56992 19.4156 7.35854 19.9259 6.98227 20.3021C6.87333 20.4111 6.81213 20.5588 6.81213 20.7129C6.81213 20.867 6.87333 21.0147 6.98227 21.1237C7.09121 21.2326 7.23897 21.2938 7.39303 21.2938Z" fill="black" stroke="black" stroke-width="0.2"/>
<path d="M19.3086 13.4861C19.4626 13.4861 19.6104 13.4249 19.7193 13.316C19.8283 13.207 19.8895 13.0593 19.8895 12.9052C19.8895 12.7511 19.8283 12.6034 19.7193 12.4944L11.9525 4.72767C11.8436 4.61872 11.6958 4.55752 11.5418 4.55752C11.3877 4.55752 11.24 4.61872 11.131 4.72767C11.0221 4.83661 10.9609 4.98436 10.9609 5.13843C10.9609 5.29249 11.0221 5.44025 11.131 5.54919L18.8978 13.316C19.0067 13.4249 19.1545 13.4861 19.3086 13.4861Z" fill="black" stroke="black" stroke-width="0.2"/>
</svg>
