<svg width="38" height="34" viewBox="0 0 38 34" fill="none" xmlns="http://www.w3.org/2000/svg">
<path d="M30.9486 4.32727H26.9657C26.5721 3.07233 25.7895 1.97601 24.7317 1.19777C23.6738 0.419516 22.396 -7.99705e-05 21.0839 1.14323e-08H8.13655C6.50138 1.14323e-08 4.93318 0.651297 3.77694 1.81061C2.6207 2.96993 1.97113 4.5423 1.97113 6.18182V11.6775C1.68363 11.832 1.42161 12.0301 1.19429 12.2647C0.0105245 13.5011 0.0660131 15.3556 0.109171 16.6971C0.109171 16.9135 0.109171 17.1236 0.109171 17.3153C0.109171 19.1698 3.46316 23.6949 4.42496 24.9436V29.6727H14.302V34H33.4148V29.172L36.0536 22.2916C36.3312 21.5691 36.5638 20.83 36.7503 20.0785C36.9914 19.1101 37.1135 18.1157 37.114 17.1175V10.5091C37.114 8.86957 36.4645 7.2972 35.3082 6.13789C34.152 4.97857 32.5838 4.32727 30.9486 4.32727ZM1.35459 17.3091C1.35459 17.1113 1.35459 16.8887 1.35459 16.6909C1.31759 15.4916 1.26827 14.008 2.08827 13.1549C2.4073 12.8725 2.77951 12.6569 3.18295 12.521C3.5864 12.3851 4.0129 12.3316 4.4373 12.3636H9.36963C9.70132 12.3321 10.0359 12.3744 10.3494 12.4875C10.6629 12.6006 10.9476 12.7818 11.1832 13.018C11.4188 13.2542 11.5994 13.5397 11.7122 13.854C11.8251 14.1684 11.8672 14.5038 11.8358 14.8364C11.8358 15.708 10.8987 17.3091 9.36963 17.3091C9.20611 17.3091 9.04929 17.3742 8.93367 17.4902C8.81805 17.6061 8.75309 17.7633 8.75309 17.9273C8.75309 18.0912 8.81805 18.2485 8.93367 18.3644C9.04929 18.4803 9.20611 18.5455 9.36963 18.5455C11.6262 18.5455 13.0689 16.3509 13.0689 14.8364C13.0674 14.6296 13.053 14.4231 13.0257 14.2182H18.6178C21.8916 14.2182 23.5501 12.1411 23.5501 8.03636C23.5501 7.87241 23.4851 7.71517 23.3695 7.59924C23.2539 7.48331 23.0971 7.41818 22.9336 7.41818C22.77 7.41818 22.6132 7.48331 22.4976 7.59924C22.382 7.71517 22.317 7.87241 22.317 8.03636C22.317 12.4193 20.3379 12.9818 18.6178 12.9818H12.6681C12.3461 12.3945 11.8664 11.9094 11.2834 11.5816C10.7004 11.2538 10.0374 11.0964 9.36963 11.1273H4.4373C4.02346 11.1266 3.61052 11.166 3.20421 11.2447V6.18182C3.20421 4.8702 3.72387 3.61231 4.64886 2.68485C5.57385 1.7574 6.82841 1.23636 8.13655 1.23636H21.0839C22.3921 1.23636 23.6466 1.7574 24.5716 2.68485C25.4966 3.61231 26.0163 4.8702 26.0163 6.18182V12.7902C26.0159 13.6863 25.9061 14.579 25.6895 15.4484C25.5155 16.1518 25.2973 16.8435 25.036 17.5193L22.5081 24.1091H5.35594C3.73444 21.9887 1.35459 18.4651 1.35459 17.3091ZM5.67038 28.4364V25.3455H22.317V28.4364H5.67038ZM32.1817 32.7636H15.5351V29.6727H32.1817V32.7636ZM35.8809 17.1175C35.8806 18.0136 35.7708 18.9063 35.5542 19.7756C35.3802 20.4791 35.1619 21.1708 34.9006 21.8465L32.3728 28.4364H23.5501V24.8447L25.9669 18.5455H26.0163H28.4824C31.7563 18.5455 33.4148 16.4684 33.4148 12.3636C33.4148 12.1997 33.3498 12.0424 33.2342 11.9265C33.1186 11.8106 32.9617 11.7455 32.7982 11.7455C32.6347 11.7455 32.4779 11.8106 32.3623 11.9265C32.2466 12.0424 32.1817 12.1997 32.1817 12.3636C32.1817 16.7465 30.2026 17.3091 28.4824 17.3091H26.417C26.5958 16.796 26.7561 16.2767 26.8856 15.7513C27.1267 14.7828 27.2488 13.7884 27.2493 12.7902V6.18182C27.2493 5.97164 27.2493 5.76764 27.2493 5.56364H30.9486C32.2567 5.56364 33.5113 6.08467 34.4363 7.01213C35.3613 7.93958 35.8809 9.19747 35.8809 10.5091V17.1175Z" fill="#EDC268"/>
</svg>
