<svg width="46" height="42" viewBox="0 0 46 42" fill="none" xmlns="http://www.w3.org/2000/svg">
<g filter="url(#filter0_d)">
<path d="M34.9486 8.32727H30.9657C30.5721 7.07233 29.7895 5.97601 28.7317 5.19777C27.6738 4.41952 26.396 3.99992 25.0839 4H12.1365C10.5014 4 8.93318 4.6513 7.77694 5.81061C6.6207 6.96993 5.97113 8.5423 5.97113 10.1818V15.6775C5.68363 15.832 5.42161 16.0301 5.19429 16.2647C4.01052 17.5011 4.06601 19.3556 4.10917 20.6971C4.10917 20.9135 4.10917 21.1236 4.10917 21.3153C4.10917 23.1698 7.46316 27.6949 8.42496 28.9436V33.6727H18.302V38H37.4148V33.172L40.0536 26.2916C40.3312 25.5691 40.5638 24.83 40.7503 24.0785C40.9914 23.1101 41.1135 22.1157 41.114 21.1175V14.5091C41.114 12.8696 40.4645 11.2972 39.3082 10.1379C38.152 8.97857 36.5838 8.32727 34.9486 8.32727ZM5.35459 21.3091C5.35459 21.1113 5.35459 20.8887 5.35459 20.6909C5.31759 19.4916 5.26827 18.008 6.08827 17.1549C6.4073 16.8725 6.77951 16.6569 7.18295 16.521C7.5864 16.3851 8.0129 16.3316 8.4373 16.3636H13.3696C13.7013 16.3321 14.0359 16.3744 14.3494 16.4875C14.6629 16.6006 14.9476 16.7818 15.1832 17.018C15.4188 17.2542 15.5994 17.5397 15.7122 17.854C15.8251 18.1684 15.8672 18.5038 15.8358 18.8364C15.8358 19.708 14.8987 21.3091 13.3696 21.3091C13.2061 21.3091 13.0493 21.3742 12.9337 21.4902C12.818 21.6061 12.7531 21.7633 12.7531 21.9273C12.7531 22.0912 12.818 22.2485 12.9337 22.3644C13.0493 22.4803 13.2061 22.5455 13.3696 22.5455C15.6262 22.5455 17.0689 20.3509 17.0689 18.8364C17.0674 18.6296 17.053 18.4231 17.0257 18.2182H22.6178C25.8916 18.2182 27.5501 16.1411 27.5501 12.0364C27.5501 11.8724 27.4851 11.7152 27.3695 11.5992C27.2539 11.4833 27.0971 11.4182 26.9336 11.4182C26.77 11.4182 26.6132 11.4833 26.4976 11.5992C26.382 11.7152 26.317 11.8724 26.317 12.0364C26.317 16.4193 24.3379 16.9818 22.6178 16.9818H16.6681C16.3461 16.3945 15.8664 15.9094 15.2834 15.5816C14.7004 15.2538 14.0374 15.0964 13.3696 15.1273H8.4373C8.02346 15.1266 7.61052 15.166 7.20421 15.2447V10.1818C7.20421 8.8702 7.72387 7.61231 8.64886 6.68485C9.57385 5.7574 10.8284 5.23636 12.1365 5.23636H25.0839C26.3921 5.23636 27.6466 5.7574 28.5716 6.68485C29.4966 7.61231 30.0163 8.8702 30.0163 10.1818V16.7902C30.0159 17.6863 29.9061 18.579 29.6895 19.4484C29.5155 20.1518 29.2973 20.8435 29.036 21.5193L26.5081 28.1091H9.35594C7.73444 25.9887 5.35459 22.4651 5.35459 21.3091ZM9.67038 32.4364V29.3455H26.317V32.4364H9.67038ZM36.1817 36.7636H19.5351V33.6727H36.1817V36.7636ZM39.8809 21.1175C39.8806 22.0136 39.7708 22.9063 39.5542 23.7756C39.3802 24.4791 39.1619 25.1708 38.9006 25.8465L36.3728 32.4364H27.5501V28.8447L29.9669 22.5455H30.0163H32.4824C35.7563 22.5455 37.4148 20.4684 37.4148 16.3636C37.4148 16.1997 37.3498 16.0424 37.2342 15.9265C37.1186 15.8106 36.9617 15.7455 36.7982 15.7455C36.6347 15.7455 36.4779 15.8106 36.3623 15.9265C36.2466 16.0424 36.1817 16.1997 36.1817 16.3636C36.1817 20.7465 34.2026 21.3091 32.4824 21.3091H30.417C30.5958 20.796 30.7561 20.2767 30.8856 19.7513C31.1267 18.7828 31.2488 17.7884 31.2493 16.7902V10.1818C31.2493 9.97164 31.2493 9.76764 31.2493 9.56364H34.9486C36.2567 9.56364 37.5113 10.0847 38.4363 11.0121C39.3613 11.9396 39.8809 13.1975 39.8809 14.5091V21.1175Z" fill="#EDC268"/>
</g>
<defs>
<filter id="filter0_d" x="0.0917969" y="0" width="45.0222" height="42" filterUnits="userSpaceOnUse" color-interpolation-filters="sRGB">
<feFlood flood-opacity="0" result="BackgroundImageFix"/>
<feColorMatrix in="SourceAlpha" type="matrix" values="0 0 0 0 0 0 0 0 0 0 0 0 0 0 0 0 0 0 127 0"/>
<feOffset/>
<feGaussianBlur stdDeviation="2"/>
<feColorMatrix type="matrix" values="0 0 0 0 0.929412 0 0 0 0 0.760784 0 0 0 0 0.407843 0 0 0 1 0"/>
<feBlend mode="normal" in2="BackgroundImageFix" result="effect1_dropShadow"/>
<feBlend mode="normal" in="SourceGraphic" in2="effect1_dropShadow" result="shape"/>
</filter>
</defs>
</svg>
