<svg width="30" height="30" viewBox="0 0 30 30" fill="none" xmlns="http://www.w3.org/2000/svg">
<path d="M22.1424 7.78822L22.0364 7.68216L21.9303 7.78823L15.1421 14.5764L8.35387 7.78822L8.2478 7.68216L8.14173 7.78822L7.78818 8.14178L7.68211 8.24784L7.78818 8.35391L14.5764 15.1421L7.78818 21.9304L7.68211 22.0364L7.78818 22.1425L8.14173 22.496L8.2478 22.6021L8.35386 22.496L15.1421 15.7078L21.9303 22.496L22.0364 22.6021L22.1424 22.496L22.496 22.1425L22.6021 22.0364L22.496 21.9304L15.7078 15.1421L22.496 8.35391L22.6021 8.24784L22.496 8.14178L22.1424 7.78822Z" fill="#EDC268" stroke="#EDC268" stroke-width="0.3"/>
</svg>
