<svg width="43" height="42" viewBox="0 0 43 42" fill="none" xmlns="http://www.w3.org/2000/svg">
<g filter="url(#filter0_d)">
<path d="M21.502 4C12.152 4 4.50195 11.65 4.50195 21C4.50195 30.35 12.152 38 21.502 38C30.852 38 38.502 30.35 38.502 21C38.502 11.65 30.852 4 21.502 4ZM37.3863 19.6187L33.7738 17.0156L35.1551 12.7656C36.377 14.8375 37.1738 17.1219 37.3863 19.6187ZM34.4113 11.65L32.7113 16.8031L27.7707 18.3969L22.0332 14.2V8.99375L26.3895 5.80625C29.6301 6.86875 32.4457 8.94062 34.4113 11.65ZM21.502 15.1562L26.9738 19.1406L24.902 25.5687H18.1551L16.0832 19.1406L21.502 15.1562ZM25.1145 5.4875L21.502 8.09062L17.8895 5.4875C19.0582 5.22187 20.2801 5.0625 21.502 5.0625C22.7238 5.0625 23.9457 5.22187 25.1145 5.4875ZM16.6145 5.85938L21.0238 9.04688V14.2531L15.2863 18.45L10.3457 16.8563L8.69883 11.7031C10.5582 8.94063 13.3738 6.86875 16.6145 5.85938ZM9.23008 17.0156L5.61758 19.6187C5.83008 17.1219 6.62695 14.7844 7.84883 12.7656L9.23008 17.0156ZM5.56445 21L9.97383 17.8125L15.0738 19.4594L17.1988 26.0469L14.0645 30.4031H8.6457C6.68008 27.7469 5.56445 24.5063 5.56445 21ZM9.4957 31.4125H13.9582L15.3395 35.6625C13.0551 34.7062 11.0363 33.2719 9.4957 31.4125ZM16.5613 36.1406L14.8613 30.9875L18.0488 26.5781H24.8488L28.0363 30.9875L26.3363 36.1406C24.7957 36.6719 23.1488 36.9375 21.3957 36.9375C19.802 36.9375 18.102 36.6719 16.5613 36.1406ZM27.7176 35.6625L29.0988 31.4125H33.5613C31.9676 33.2719 29.9488 34.7062 27.7176 35.6625ZM34.3582 30.35H28.9926L25.8582 25.9938L27.9832 19.4062L33.0832 17.7594L37.4926 20.9469C37.4395 24.5063 36.3238 27.7469 34.3582 30.35Z" fill="#EDC268"/>
</g>
<defs>
<filter id="filter0_d" x="0.501953" y="0" width="42" height="42" filterUnits="userSpaceOnUse" color-interpolation-filters="sRGB">
<feFlood flood-opacity="0" result="BackgroundImageFix"/>
<feColorMatrix in="SourceAlpha" type="matrix" values="0 0 0 0 0 0 0 0 0 0 0 0 0 0 0 0 0 0 127 0"/>
<feOffset/>
<feGaussianBlur stdDeviation="2"/>
<feColorMatrix type="matrix" values="0 0 0 0 0.929412 0 0 0 0 0.760784 0 0 0 0 0.407843 0 0 0 1 0"/>
<feBlend mode="normal" in2="BackgroundImageFix" result="effect1_dropShadow"/>
<feBlend mode="normal" in="SourceGraphic" in2="effect1_dropShadow" result="shape"/>
</filter>
</defs>
</svg>
