<svg width="35" height="34" viewBox="0 0 35 34" fill="none" xmlns="http://www.w3.org/2000/svg">
<path d="M17.502 0C8.15195 0 0.501953 7.65 0.501953 17C0.501953 26.35 8.15195 34 17.502 34C26.852 34 34.502 26.35 34.502 17C34.502 7.65 26.852 0 17.502 0ZM33.3863 15.6187L29.7738 13.0156L31.1551 8.76562C32.377 10.8375 33.1738 13.1219 33.3863 15.6187ZM30.4113 7.65L28.7113 12.8031L23.7707 14.3969L18.0332 10.2V4.99375L22.3895 1.80625C25.6301 2.86875 28.4457 4.94062 30.4113 7.65ZM17.502 11.1562L22.9738 15.1406L20.902 21.5687H14.1551L12.0832 15.1406L17.502 11.1562ZM21.1145 1.4875L17.502 4.09062L13.8895 1.4875C15.0582 1.22187 16.2801 1.0625 17.502 1.0625C18.7238 1.0625 19.9457 1.22187 21.1145 1.4875ZM12.6145 1.85938L17.0238 5.04688V10.2531L11.2863 14.45L6.3457 12.8563L4.69883 7.70312C6.5582 4.94063 9.37383 2.86875 12.6145 1.85938ZM5.23008 13.0156L1.61758 15.6187C1.83008 13.1219 2.62695 10.7844 3.84883 8.76562L5.23008 13.0156ZM1.56445 17L5.97383 13.8125L11.0738 15.4594L13.1988 22.0469L10.0645 26.4031H4.6457C2.68008 23.7469 1.56445 20.5063 1.56445 17ZM5.4957 27.4125H9.9582L11.3395 31.6625C9.05508 30.7062 7.03633 29.2719 5.4957 27.4125ZM12.5613 32.1406L10.8613 26.9875L14.0488 22.5781H20.8488L24.0363 26.9875L22.3363 32.1406C20.7957 32.6719 19.1488 32.9375 17.3957 32.9375C15.802 32.9375 14.102 32.6719 12.5613 32.1406ZM23.7176 31.6625L25.0988 27.4125H29.5613C27.9676 29.2719 25.9488 30.7062 23.7176 31.6625ZM30.3582 26.35H24.9926L21.8582 21.9938L23.9832 15.4062L29.0832 13.7594L33.4926 16.9469C33.4395 20.5063 32.3238 23.7469 30.3582 26.35Z" fill="#EDC268"/>
</svg>
