<svg width="51" height="50" viewBox="0 0 51 50" fill="none" xmlns="http://www.w3.org/2000/svg">
<path d="M13.346 42.1035C13.196 42.1035 13.0461 42.1035 12.8462 42.0535L2.99982 40.904C1.90023 40.754 0.950583 40.1043 0.400787 39.1546C-0.0990272 38.205 -0.149009 37.0054 0.350805 36.0558L1.7003 33.4068C2.50001 31.8074 4.49926 31.1576 6.09867 31.9573L13.5459 35.7059C13.8458 35.8559 14.2456 35.7559 14.3956 35.406L17.5444 29.1583C17.6944 28.8085 17.9942 28.5586 18.3941 28.4586C18.744 28.3586 19.1438 28.3586 19.4937 28.5586L20.8932 29.2583C21.243 29.4083 21.4929 29.7081 21.5929 30.108C21.6929 30.4579 21.6929 30.8577 21.4929 31.2076L17.1446 39.8044C16.3948 41.2039 14.8954 42.1035 13.346 42.1035ZM4.64921 32.807C3.89949 32.807 3.14976 33.2068 2.79989 33.9566L1.4504 36.6056C1.10053 37.2553 1.15051 38.0051 1.50038 38.6548C1.85025 39.3046 2.45002 39.7044 3.19975 39.8044L13.0461 40.954C14.2956 41.1039 15.5452 40.4541 16.095 39.3046L20.4433 30.7078C20.4933 30.6078 20.4933 30.5578 20.4433 30.5078C20.4433 30.4579 20.3934 30.4079 20.3434 30.3579L18.9439 29.6582C18.8439 29.6082 18.7939 29.6082 18.744 29.6582C18.694 29.6582 18.644 29.7081 18.594 29.7581L15.4452 36.0058C14.9954 36.9055 13.8958 37.2553 12.9961 36.8055L5.54887 33.0069C5.24898 32.857 4.9491 32.807 4.64921 32.807Z" fill="#EDC268"/>
<path d="M25.3419 46.2016C21.4933 46.2016 18.5944 44.8521 18.5944 43.0028C18.5944 41.2034 21.4933 39.804 25.3419 39.804C29.1905 39.804 32.0894 41.1535 32.0894 43.0028C32.0894 44.8521 29.1905 46.2016 25.3419 46.2016ZM25.3419 41.0035C21.8932 41.0035 19.794 42.1531 19.794 43.0028C19.794 43.8525 21.8932 45.002 25.3419 45.002C28.7906 45.002 30.8898 43.8525 30.8898 43.0028C30.8898 42.1531 28.7906 41.0035 25.3419 41.0035Z" fill="#EDC268"/>
<path d="M25.3416 50.0002C21.493 50.0002 18.5941 48.6507 18.5941 46.8014V43.0028H19.7937V46.8014C19.7937 47.6511 21.8929 48.8007 25.3416 48.8007C28.7903 48.8007 30.8895 47.6511 30.8895 46.8014V43.0028H32.0891V46.8014C32.0891 48.6507 29.1902 50.0002 25.3416 50.0002Z" fill="#EDC268"/>
<path d="M30.839 30.0078C30.6391 30.0078 30.4391 29.9079 30.3392 29.7079L14.1952 0.91864C14.0452 0.618752 14.1452 0.268882 14.4451 0.118938C14.745 -0.0310064 15.0948 0.0689565 15.2448 0.368845L31.3388 29.1082C31.4887 29.408 31.3888 29.7579 31.0889 29.9079C31.0389 29.9578 30.9389 30.0078 30.839 30.0078Z" fill="#EDC268"/>
<path d="M37.337 42.1032C35.7376 42.1032 34.2882 41.2035 33.5384 39.804L29.1901 31.2072C29.0401 30.8574 28.9901 30.4575 29.0901 30.1076C29.1901 29.7578 29.44 29.4579 29.7898 29.258L31.1893 28.5582C31.5392 28.4083 31.939 28.3583 32.2889 28.4583C32.6388 28.5582 32.9387 28.8081 33.1386 29.158L36.3374 35.4057C36.3874 35.5556 36.5373 35.6556 36.6873 35.7056C36.8372 35.7555 37.0371 35.7555 37.1871 35.6556L44.6343 31.907C46.2337 31.1073 48.233 31.757 49.0327 33.3564L50.3822 36.0055C50.882 37.0051 50.882 38.1547 50.3322 39.1043C49.8324 40.0539 48.8328 40.7537 47.7332 40.8536L37.8368 42.0532C37.6869 42.1032 37.487 42.1032 37.337 42.1032ZM31.8891 29.5578C31.8391 29.5578 31.8391 29.5578 31.7891 29.6078L30.3896 30.3076C30.2896 30.3575 30.2896 30.4075 30.2896 30.4575C30.2896 30.5075 30.2397 30.5575 30.2896 30.6574L34.638 39.2542C35.1878 40.4038 36.4374 41.0536 37.6869 40.9036L47.5332 39.7541C48.233 39.6541 48.8827 39.2542 49.2326 38.6045C49.5825 37.9547 49.5825 37.205 49.2826 36.5552L47.9331 33.9062C47.4333 32.8566 46.1338 32.4568 45.1341 32.9566L37.6869 36.7052C37.2371 36.9051 36.7872 36.9551 36.2874 36.8052C35.8376 36.6552 35.4377 36.3553 35.2378 35.9055L32.089 29.6578C32.039 29.5578 31.989 29.5578 31.939 29.5578C31.939 29.6078 31.8891 29.5578 31.8891 29.5578Z" fill="#EDC268"/>
<path d="M26.3914 18.0622C26.2914 18.0622 26.1915 18.0622 26.0915 17.9622C25.7916 17.8123 25.6916 17.4624 25.8416 17.1625L35.2881 0.318796C35.438 0.0189076 35.7879 -0.0810552 36.0878 0.0688891C36.3877 0.218833 36.4876 0.568703 36.3377 0.868592L26.8912 17.7623C26.7912 17.9123 26.5913 18.0622 26.3914 18.0622Z" fill="#EDC268"/>
<path d="M19.694 30.0078C19.594 30.0078 19.4941 30.0078 19.3941 29.9079C19.0942 29.7579 18.9943 29.4081 19.1442 29.1082L23.6425 21.1112C23.7925 20.8113 24.1423 20.7113 24.4422 20.8612C24.7421 21.0112 24.8421 21.3611 24.6921 21.6609L20.1938 29.658C20.0939 29.9079 19.8939 30.0078 19.694 30.0078Z" fill="#EDC268"/>
</svg>
