<svg width="59" height="58" viewBox="0 0 59 58" fill="none" xmlns="http://www.w3.org/2000/svg">
<g filter="url(#filter0_d)">
<path d="M17.346 46.1035C17.196 46.1035 17.0461 46.1035 16.8462 46.0535L6.99982 44.904C5.90023 44.754 4.95058 44.1043 4.40079 43.1546C3.90097 42.205 3.85099 41.0054 4.35081 40.0558L5.7003 37.4068C6.50001 35.8074 8.49926 35.1576 10.0987 35.9573L17.5459 39.7059C17.8458 39.8559 18.2456 39.7559 18.3956 39.406L21.5444 33.1583C21.6944 32.8085 21.9942 32.5586 22.3941 32.4586C22.744 32.3586 23.1438 32.3586 23.4937 32.5586L24.8932 33.2583C25.243 33.4083 25.4929 33.7081 25.5929 34.108C25.6929 34.4579 25.6929 34.8577 25.4929 35.2076L21.1446 43.8044C20.3948 45.2039 18.8954 46.1035 17.346 46.1035ZM8.64921 36.807C7.89949 36.807 7.14976 37.2068 6.79989 37.9566L5.4504 40.6056C5.10053 41.2553 5.15051 42.0051 5.50038 42.6548C5.85025 43.3046 6.45002 43.7044 7.19975 43.8044L17.0461 44.954C18.2956 45.1039 19.5452 44.4541 20.095 43.3046L24.4433 34.7078C24.4933 34.6078 24.4933 34.5578 24.4433 34.5078C24.4433 34.4579 24.3934 34.4079 24.3434 34.3579L22.9439 33.6582C22.8439 33.6082 22.7939 33.6082 22.744 33.6582C22.694 33.6582 22.644 33.7081 22.594 33.7581L19.4452 40.0058C18.9954 40.9055 17.8958 41.2553 16.9961 40.8055L9.54887 37.0069C9.24898 36.857 8.9491 36.807 8.64921 36.807Z" fill="#EDC268"/>
<path d="M29.3419 50.2016C25.4933 50.2016 22.5944 48.8521 22.5944 47.0028C22.5944 45.2034 25.4933 43.804 29.3419 43.804C33.1905 43.804 36.0894 45.1535 36.0894 47.0028C36.0894 48.8521 33.1905 50.2016 29.3419 50.2016ZM29.3419 45.0035C25.8932 45.0035 23.794 46.1531 23.794 47.0028C23.794 47.8525 25.8932 49.002 29.3419 49.002C32.7906 49.002 34.8898 47.8525 34.8898 47.0028C34.8898 46.1531 32.7906 45.0035 29.3419 45.0035Z" fill="#EDC268"/>
<path d="M29.3416 54.0002C25.493 54.0002 22.5941 52.6507 22.5941 50.8014V47.0028H23.7937V50.8014C23.7937 51.6511 25.8929 52.8007 29.3416 52.8007C32.7903 52.8007 34.8895 51.6511 34.8895 50.8014V47.0028H36.0891V50.8014C36.0891 52.6507 33.1902 54.0002 29.3416 54.0002Z" fill="#EDC268"/>
<path d="M34.839 34.0078C34.6391 34.0078 34.4391 33.9079 34.3392 33.7079L18.1952 4.91864C18.0452 4.61875 18.1452 4.26888 18.4451 4.11894C18.745 3.96899 19.0948 4.06896 19.2448 4.36884L35.3388 33.1082C35.4887 33.408 35.3888 33.7579 35.0889 33.9079C35.0389 33.9578 34.9389 34.0078 34.839 34.0078Z" fill="#EDC268"/>
<path d="M41.337 46.1032C39.7376 46.1032 38.2882 45.2035 37.5384 43.804L33.1901 35.2072C33.0401 34.8574 32.9901 34.4575 33.0901 34.1076C33.1901 33.7578 33.44 33.4579 33.7898 33.258L35.1893 32.5582C35.5392 32.4083 35.939 32.3583 36.2889 32.4583C36.6388 32.5582 36.9387 32.8081 37.1386 33.158L40.3374 39.4057C40.3874 39.5556 40.5373 39.6556 40.6873 39.7056C40.8372 39.7555 41.0371 39.7555 41.1871 39.6556L48.6343 35.907C50.2337 35.1073 52.233 35.757 53.0327 37.3564L54.3822 40.0055C54.882 41.0051 54.882 42.1547 54.3322 43.1043C53.8324 44.0539 52.8328 44.7537 51.7332 44.8536L41.8368 46.0532C41.6869 46.1032 41.487 46.1032 41.337 46.1032ZM35.8891 33.5578C35.8391 33.5578 35.8391 33.5578 35.7891 33.6078L34.3896 34.3076C34.2896 34.3575 34.2896 34.4075 34.2896 34.4575C34.2896 34.5075 34.2397 34.5575 34.2896 34.6574L38.638 43.2542C39.1878 44.4038 40.4374 45.0536 41.6869 44.9036L51.5332 43.7541C52.233 43.6541 52.8827 43.2542 53.2326 42.6045C53.5825 41.9547 53.5825 41.205 53.2826 40.5552L51.9331 37.9062C51.4333 36.8566 50.1338 36.4568 49.1341 36.9566L41.6869 40.7052C41.2371 40.9051 40.7872 40.9551 40.2874 40.8052C39.8376 40.6552 39.4377 40.3553 39.2378 39.9055L36.089 33.6578C36.039 33.5578 35.989 33.5578 35.939 33.5578C35.939 33.6078 35.8891 33.5578 35.8891 33.5578Z" fill="#EDC268"/>
<path d="M30.3914 22.0622C30.2914 22.0622 30.1915 22.0622 30.0915 21.9622C29.7916 21.8123 29.6916 21.4624 29.8416 21.1625L39.2881 4.3188C39.438 4.01891 39.7879 3.91894 40.0878 4.06889C40.3877 4.21883 40.4876 4.5687 40.3377 4.86859L30.8912 21.7623C30.7912 21.9123 30.5913 22.0622 30.3914 22.0622Z" fill="#EDC268"/>
<path d="M23.694 34.0078C23.594 34.0078 23.4941 34.0078 23.3941 33.9079C23.0942 33.7579 22.9943 33.4081 23.1442 33.1082L27.6425 25.1112C27.7925 24.8113 28.1423 24.7113 28.4422 24.8612C28.7421 25.0112 28.8421 25.3611 28.6921 25.6609L24.1938 33.658C24.0939 33.9079 23.8939 34.0078 23.694 34.0078Z" fill="#EDC268"/>
</g>
<defs>
<filter id="filter0_d" x="0" y="0" width="58.751" height="58.0002" filterUnits="userSpaceOnUse" color-interpolation-filters="sRGB">
<feFlood flood-opacity="0" result="BackgroundImageFix"/>
<feColorMatrix in="SourceAlpha" type="matrix" values="0 0 0 0 0 0 0 0 0 0 0 0 0 0 0 0 0 0 127 0"/>
<feOffset/>
<feGaussianBlur stdDeviation="2"/>
<feColorMatrix type="matrix" values="0 0 0 0 0.929412 0 0 0 0 0.760784 0 0 0 0 0.407843 0 0 0 1 0"/>
<feBlend mode="normal" in2="BackgroundImageFix" result="effect1_dropShadow"/>
<feBlend mode="normal" in="SourceGraphic" in2="effect1_dropShadow" result="shape"/>
</filter>
</defs>
</svg>
